Merriweather-UltraBdIt.ufo
<glyph name="exclam" format="1">
  <advance width="716"/>
  <unicode hex="0021"/>
  <outline>
    <contour>
      <point x="241" y="528" type="line"/>
      <point x="444" y="528" type="line"/>
      <point x="702" y="1778" type="line"/>
      <point x="367" y="1778" type="line"/>
    </contour>
    <contour>
      <point x="116" y="141" type="curve" smooth="yes"/>
      <point x="116" y="49"/>
      <point x="178" y="-20"/>
      <point x="253" y="-20" type="curve" smooth="yes"/>
      <point x="349" y="-20"/>
      <point x="455" y="44"/>
      <point x="455" y="180" type="curve" smooth="yes"/>
      <point x="455" y="262"/>
      <point x="406" y="341"/>
      <point x="307" y="341" type="curve" smooth="yes"/>
      <point x="216" y="341"/>
      <point x="116" y="266"/>
    </contour>
  </outline>
</glyph>
<glyph name="numbersign" format="1">
  <advance width="1405"/>
  <unicode hex="0023"/>
  <outline>
    <contour>
      <point x="237" y="0" type="line"/>
      <point x="459" y="0" type="line"/>
      <point x="521" y="365" type="line"/>
      <point x="773" y="365" type="line"/>
      <point x="722" y="0" type="line"/>
      <point x="942" y="0" type="line"/>
      <point x="999" y="365" type="line"/>
      <point x="1208" y="365" type="line"/>
      <point x="1231" y="545" type="line"/>
      <point x="1033" y="545" type="line"/>
      <point x="1079" y="850" type="line"/>
      <point x="1290" y="850" type="line"/>
      <point x="1306" y="1025" type="line"/>
      <point x="1104" y="1025" type="line"/>
      <point x="1158" y="1357" type="line"/>
      <point x="933" y="1357" type="line"/>
      <point x="877" y="1025" type="line"/>
      <point x="626" y="1025" type="line"/>
      <point x="677" y="1357" type="line"/>
      <point x="452" y="1357" type="line"/>
      <point x="399" y="1025" type="line"/>
      <point x="197" y="1025" type="line"/>
      <point x="181" y="850" type="line"/>
      <point x="374" y="850" type="line"/>
      <point x="329" y="545" type="line"/>
      <point x="134" y="545" type="line"/>
      <point x="111" y="365" type="line"/>
      <point x="295" y="365" type="line"/>
    </contour>
    <contour>
      <point x="555" y="545" type="line"/>
      <point x="601" y="850" type="line"/>
      <point x="852" y="850" type="line"/>
      <point x="807" y="545" type="line"/>
    </contour>
  </outline>
</glyph>
<glyph name="dollar" format="1">
  <advance width="1205"/>
  <unicode hex="0024"/>
  <outline>
    <contour>
      <point x="669" y="1509" type="line"/>
      <point x="669" y="1509"/>
      <point x="824" y="1508"/>
      <point x="849" y="1508" type="curve"/>
      <point x="884" y="1729" type="line"/>
      <point x="703" y="1729" type="line"/>
    </contour>
    <contour>
      <point x="399" y="-5" type="curve"/>
      <point x="363" y="-230" type="line"/>
      <point x="543" y="-230" type="line"/>
      <point x="580" y="-4" type="line"/>
      <point x="555" y="-4"/>
      <point x="399" y="-5"/>
    </contour>
    <contour>
      <point x="17" y="75" type="line"/>
      <point x="62" y="38"/>
      <point x="272" y="-23"/>
      <point x="496" y="-23" type="curve" smooth="yes"/>
      <point x="916" y="-23"/>
      <point x="1088" y="200"/>
      <point x="1088" y="445" type="curve" smooth="yes"/>
      <point x="1088" y="656"/>
      <point x="937" y="783"/>
      <point x="769" y="887" type="curve" smooth="yes"/>
      <point x="573" y="1008"/>
      <point x="481" y="1087"/>
      <point x="481" y="1232" type="curve" smooth="yes"/>
      <point x="481" y="1337"/>
      <point x="546" y="1415"/>
      <point x="691" y="1415" type="curve" smooth="yes"/>
      <point x="789" y="1415"/>
      <point x="854" y="1382"/>
      <point x="917" y="1319" type="curve"/>
      <point x="860" y="1402" type="line"/>
      <point x="893" y="1165" type="line"/>
      <point x="1084" y="1165" type="line"/>
      <point x="1138" y="1467" type="line"/>
      <point x="1074" y="1504"/>
      <point x="953" y="1541"/>
      <point x="736" y="1541" type="curve" smooth="yes"/>
      <point x="407" y="1541"/>
      <point x="164" y="1381"/>
      <point x="164" y="1091" type="curve" smooth="yes"/>
      <point x="164" y="883"/>
      <point x="317" y="748"/>
      <point x="494" y="635" type="curve" smooth="yes"/>
      <point x="680" y="516"/>
      <point x="760" y="443"/>
      <point x="760" y="315" type="curve" smooth="yes"/>
      <point x="760" y="202"/>
      <point x="701" y="106"/>
      <point x="501" y="106" type="curve" smooth="yes"/>
      <point x="334" y="106"/>
      <point x="240" y="211"/>
      <point x="201" y="276" type="curve" smooth="yes"/>
      <point x="295" y="123" type="line"/>
      <point x="283" y="393" type="line"/>
      <point x="79" y="393" type="line"/>
    </contour>
  </outline>
</glyph>
<glyph name="ampersand" format="1">
  <advance width="1812"/>
  <unicode hex="0026"/>
  <outline>
    <contour>
      <point x="71" y="340" type="curve" smooth="yes"/>
      <point x="71" y="106"/>
      <point x="321" y="-37"/>
      <point x="676" y="-37" type="curve" smooth="yes"/>
      <point x="1055" y="-37"/>
      <point x="1547" y="170"/>
      <point x="1547" y="556" type="curve" smooth="yes"/>
      <point x="1547" y="658"/>
      <point x="1535" y="716"/>
      <point x="1516" y="754" type="curve"/>
      <point x="1244" y="754" type="line"/>
      <point x="1261" y="708"/>
      <point x="1275" y="630"/>
      <point x="1275" y="512" type="curve" smooth="yes"/>
      <point x="1275" y="250"/>
      <point x="1038" y="104"/>
      <point x="724" y="104" type="curve" smooth="yes"/>
      <point x="541" y="104"/>
      <point x="417" y="207"/>
      <point x="417" y="382" type="curve" smooth="yes"/>
      <point x="417" y="821"/>
      <point x="1357" y="754"/>
      <point x="1357" y="1248" type="curve" smooth="yes"/>
      <point x="1357" y="1414"/>
      <point x="1223" y="1552"/>
      <point x="925" y="1552" type="curve" smooth="yes"/>
      <point x="612" y="1552"/>
      <point x="382" y="1385"/>
      <point x="382" y="1094" type="curve" smooth="yes"/>
      <point x="382" y="951"/>
      <point x="461" y="761"/>
      <point x="525" y="654" type="curve" smooth="yes"/>
      <point x="654" y="438"/>
      <point x="757" y="244"/>
      <point x="953" y="80" type="curve" smooth="yes"/>
      <point x="1029" y="17"/>
      <point x="1131" y="-20"/>
      <point x="1284" y="-20" type="curve" smooth="yes"/>
      <point x="1436" y="-20"/>
      <point x="1503" y="-10"/>
      <point x="1572" y="19" type="curve"/>
      <point x="1573" y="144" type="line"/>
      <point x="1512" y="136"/>
      <point x="1414" y="151"/>
      <point x="1357" y="179" type="curve" smooth="yes"/>
      <point x="1312" y="201"/>
      <point x="1188" y="309"/>
      <point x="1152" y="349" type="curve" smooth="yes"/>
      <point x="1034" y="478"/>
      <point x="966" y="564"/>
      <point x="835" y="801" type="curve" smooth="yes"/>
      <point x="800" y="863"/>
      <point x="722" y="992"/>
      <point x="722" y="1160" type="curve" smooth="yes"/>
      <point x="722" y="1311"/>
      <point x="764" y="1429"/>
      <point x="919" y="1429" type="curve" smooth="yes"/>
      <point x="1010" y="1429"/>
      <point x="1036" y="1322"/>
      <point x="1036" y="1232" type="curve" smooth="yes"/>
      <point x="1036" y="736"/>
      <point x="71" y="906"/>
    </contour>
    <contour>
      <point x="1094" y="557" type="line"/>
      <point x="1123" y="581"/>
      <point x="1184" y="595"/>
      <point x="1249" y="595" type="curve" smooth="yes"/>
      <point x="1392" y="595"/>
      <point x="1494" y="578"/>
      <point x="1579" y="578" type="curve" smooth="yes"/>
      <point x="1738" y="578"/>
      <point x="1792" y="787"/>
      <point x="1733" y="968" type="curve"/>
      <point x="1620" y="968" type="line"/>
      <point x="1601" y="845"/>
      <point x="1569" y="816"/>
      <point x="1458" y="816" type="curve" smooth="yes"/>
      <point x="1366" y="816"/>
      <point x="1324" y="832"/>
      <point x="1249" y="832" type="curve" smooth="yes"/>
      <point x="1161" y="832"/>
      <point x="1112" y="801"/>
      <point x="1094" y="783" type="curve"/>
    </contour>
  </outline>
</glyph>
<glyph name="quotesingle" format="1">
  <advance width="591"/>
  <unicode hex="0027"/>
  <outline>
    <contour>
      <point x="195" y="966" type="line"/>
      <point x="395" y="966" type="line"/>
      <point x="563" y="1687" type="line"/>
      <point x="276" y="1687" type="line"/>
    </contour>
  </outline>
</glyph>
<glyph name="period" format="1">
  <advance width="556"/>
  <unicode hex="002E"/>
  <outline>
    <contour>
      <point x="61" y="141" type="curve" smooth="yes"/>
      <point x="61" y="49"/>
      <point x="123" y="-20"/>
      <point x="198" y="-20" type="curve" smooth="yes"/>
      <point x="294" y="-20"/>
      <point x="400" y="44"/>
      <point x="400" y="180" type="curve" smooth="yes"/>
      <point x="400" y="262"/>
      <point x="351" y="341"/>
      <point x="252" y="341" type="curve" smooth="yes"/>
      <point x="161" y="341"/>
      <point x="61" y="266"/>
    </contour>
  </outline>
</glyph>
<glyph name="slash" format="1">
  <advance width="854"/>
  <unicode hex="002F"/>
  <outline>
    <contour>
      <point x="110" y="-362" type="line"/>
      <point x="973" y="1597" type="line"/>
      <point x="739" y="1597" type="line"/>
      <point x="-122" y="-362" type="line"/>
    </contour>
  </outline>
</glyph>
<glyph name="zero" format="1">
  <advance width="1278"/>
  <unicode hex="0030"/>
  <outline>
    <contour>
      <point x="587" y="94" type="curve"/>
      <point x="459" y="94"/>
      <point x="421" y="266"/>
      <point x="421" y="466" type="curve" smooth="yes"/>
      <point x="421" y="694"/>
      <point x="464" y="1053"/>
      <point x="693" y="1053" type="curve" smooth="yes"/>
      <point x="821" y="1053"/>
      <point x="859" y="881"/>
      <point x="859" y="681" type="curve" smooth="yes"/>
      <point x="859" y="453"/>
      <point x="816" y="94"/>
    </contour>
    <contour>
      <point x="565" y="-16" type="curve" smooth="yes"/>
      <point x="942" y="-16"/>
      <point x="1208" y="273"/>
      <point x="1208" y="676" type="curve" smooth="yes"/>
      <point x="1208" y="928"/>
      <point x="1070" y="1162"/>
      <point x="720" y="1162" type="curve"/>
      <point x="343" y="1162"/>
      <point x="77" y="873"/>
      <point x="77" y="470" type="curve" smooth="yes"/>
      <point x="77" y="218"/>
      <point x="215" y="-16"/>
    </contour>
  </outline>
</glyph>
<glyph name="five" format="1">
  <advance width="1116"/>
  <unicode hex="0035"/>
  <outline>
    <contour>
      <point x="66" y="-185" type="curve"/>
      <point x="41" y="-329" type="line"/>
      <point x="66" y="-336"/>
      <point x="180" y="-354"/>
      <point x="245" y="-354" type="curve" smooth="yes"/>
      <point x="677" y="-354"/>
      <point x="1001" y="-111"/>
      <point x="1001" y="257" type="curve" smooth="yes"/>
      <point x="1001" y="437"/>
      <point x="895" y="604"/>
      <point x="624" y="604" type="curve" smooth="yes"/>
      <point x="545" y="604"/>
      <point x="424" y="569"/>
      <point x="387" y="541" type="curve"/>
      <point x="489" y="935" type="line"/>
      <point x="992" y="934" type="line"/>
      <point x="1047" y="1162" type="line"/>
      <point x="889" y="1162" type="line"/>
      <point x="867" y="1146" type="line"/>
      <point x="250" y="1146" type="line"/>
      <point x="98" y="414" type="line"/>
      <point x="159" y="367" type="line"/>
      <point x="206" y="392"/>
      <point x="287" y="427"/>
      <point x="389" y="427" type="curve" smooth="yes"/>
      <point x="555" y="427"/>
      <point x="641" y="330"/>
      <point x="641" y="184" type="curve" smooth="yes"/>
      <point x="641" y="8"/>
      <point x="515" y="-201"/>
      <point x="175" y="-201" type="curve" smooth="yes"/>
      <point x="138" y="-201"/>
      <point x="87" y="-191"/>
    </contour>
  </outline>
</glyph>
<glyph name="less" format="1">
  <advance width="1368"/>
  <unicode hex="003C"/>
  <outline>
    <contour>
      <point x="195" y="686" type="line"/>
      <point x="1085" y="176" type="line"/>
      <point x="1111" y="417" type="line"/>
      <point x="505" y="747" type="line"/>
      <point x="1187" y="1063" type="line"/>
      <point x="1220" y="1324" type="line"/>
      <point x="211" y="814" type="line"/>
    </contour>
  </outline>
</glyph>
<glyph name="A" format="1">
  <advance width="1351"/>
  <unicode hex="0041"/>
  <outline>
    <contour>
      <point x="635" y="-168" type="move" name="btm"/>
    </contour>
    <contour>
      <point x="811" y="1700" type="move" name="top"/>
    </contour>
    <contour>
      <point x="-15" y="135" type="line"/>
      <point x="-153" y="106" type="line"/>
      <point x="-161" y="0" type="line"/>
      <point x="397" y="0" type="line"/>
      <point x="405" y="106" type="line"/>
      <point x="217" y="136" type="line"/>
      <point x="714" y="1308" type="line"/>
      <point x="723" y="1117" type="line"/>
      <point x="862" y="135" type="line"/>
      <point x="705" y="106" type="line"/>
      <point x="700" y="0" type="line"/>
      <point x="1389" y="0" type="line"/>
      <point x="1395" y="106" type="line"/>
      <point x="1234" y="138" type="line"/>
      <point x="987" y="1522" type="line"/>
      <point x="640" y="1522" type="line"/>
    </contour>
    <contour>
      <point x="234" y="416" type="line"/>
      <point x="990" y="416" type="line"/>
      <point x="955" y="567" type="line"/>
      <point x="287" y="567" type="line"/>
    </contour>
  </outline>
</glyph>
<glyph name="B" format="1">
  <advance width="1405"/>
  <unicode hex="0042"/>
  <outline>
    <contour>
      <point x="778" y="-168" type="move" name="btm"/>
    </contour>
    <contour>
      <point x="778" y="1700" type="move" name="top"/>
    </contour>
    <contour>
      <point x="604" y="-20" type="curve" smooth="yes"/>
      <point x="1083" y="-20"/>
      <point x="1336" y="124"/>
      <point x="1336" y="500" type="curve" smooth="yes"/>
      <point x="1336" y="662"/>
      <point x="1199" y="808"/>
      <point x="968" y="803" type="curve"/>
      <point x="1224" y="865"/>
      <point x="1352" y="992"/>
      <point x="1344" y="1210" type="curve" smooth="yes"/>
      <point x="1338" y="1375"/>
      <point x="1258" y="1538"/>
      <point x="866" y="1538" type="curve" smooth="yes"/>
      <point x="729" y="1538"/>
      <point x="612" y="1522"/>
      <point x="489" y="1522" type="curve"/>
      <point x="634" y="1396" type="line"/>
      <point x="679" y="1408"/>
      <point x="755" y="1412"/>
      <point x="787" y="1412" type="curve" smooth="yes"/>
      <point x="930" y="1412"/>
      <point x="1008" y="1332"/>
      <point x="1014" y="1184" type="curve" smooth="yes"/>
      <point x="1022" y="946"/>
      <point x="866" y="856"/>
      <point x="692" y="856" type="curve" smooth="yes"/>
      <point x="635" y="856"/>
      <point x="598" y="854"/>
      <point x="544" y="858" type="curve"/>
      <point x="454" y="792" type="line"/>
      <point x="527" y="712" type="line"/>
      <point x="563" y="715"/>
      <point x="575" y="719"/>
      <point x="674" y="719" type="curve" smooth="yes"/>
      <point x="881" y="719"/>
      <point x="963" y="636"/>
      <point x="969" y="466" type="curve" smooth="yes"/>
      <point x="978" y="217"/>
      <point x="867" y="105"/>
      <point x="647" y="105" type="curve" smooth="yes"/>
      <point x="590" y="105"/>
      <point x="460" y="124"/>
      <point x="430" y="142" type="curve"/>
      <point x="284" y="0" type="line"/>
      <point x="375" y="0"/>
      <point x="507" y="-20"/>
    </contour>
    <contour>
      <point x="-13" y="0" type="line"/>
      <point x="541" y="0" type="line"/>
      <point x="508" y="80" type="line"/>
      <point x="470" y="126" type="line"/>
      <point x="645" y="1422" type="line"/>
      <point x="707" y="1447" type="line"/>
      <point x="773" y="1522" type="line"/>
      <point x="171" y="1522" type="line"/>
      <point x="158" y="1412" type="line"/>
      <point x="303" y="1386" type="line"/>
      <point x="136" y="136" type="line"/>
      <point x="-4" y="106" type="line"/>
    </contour>
  </outline>
</glyph>
<glyph name="N" format="1">
  <advance width="1554"/>
  <unicode hex="004E"/>
  <outline>
    <contour>
      <point x="689" y="-170" type="move" name="btm"/>
    </contour>
    <contour>
      <point x="922" y="1700" type="move" name="top"/>
    </contour>
    <contour>
      <point x="-19" y="0" type="line"/>
      <point x="534" y="0" type="line"/>
      <point x="545" y="106" type="line"/>
      <point x="355" y="136" type="line"/>
      <point x="480" y="1274" type="line"/>
      <point x="558" y="1020" type="line"/>
      <point x="949" y="0" type="line"/>
      <point x="1307" y="0" type="line"/>
      <point x="1519" y="1386" type="line"/>
      <point x="1642" y="1412" type="line"/>
      <point x="1653" y="1522" type="line"/>
      <point x="1151" y="1522" type="line"/>
      <point x="1140" y="1412" type="line"/>
      <point x="1312" y="1386" type="line"/>
      <point x="1176" y="305" type="line"/>
      <point x="1098" y="535" type="line"/>
      <point x="727" y="1522" type="line"/>
      <point x="170" y="1522" type="line"/>
      <point x="154" y="1412" type="line"/>
      <point x="324" y="1386" type="line"/>
      <point x="138" y="136" type="line"/>
      <point x="-11" y="106" type="line"/>
    </contour>
  </outline>
</glyph>
<glyph name="P" format="1">
  <advance width="1341"/>
  <unicode hex="0050"/>
  <outline>
    <contour>
      <point x="277" y="-170" type="move" name="btm"/>
    </contour>
    <contour>
      <point x="859" y="1700" type="move" name="top"/>
    </contour>
    <contour>
      <point x="-13" y="0" type="line"/>
      <point x="765" y="0" type="line"/>
      <point x="773" y="106" type="line"/>
      <point x="495" y="136" type="line"/>
      <point x="541" y="518" type="line"/>
      <point x="567" y="515"/>
      <point x="597" y="514"/>
      <point x="658" y="514" type="curve" smooth="yes"/>
      <point x="1103" y="514"/>
      <point x="1384" y="738"/>
      <point x="1372" y="1131" type="curve" smooth="yes"/>
      <point x="1364" y="1394"/>
      <point x="1218" y="1538"/>
      <point x="813" y="1538" type="curve" smooth="yes"/>
      <point x="710" y="1538"/>
      <point x="607" y="1522"/>
      <point x="486" y="1522" type="curve" smooth="yes"/>
      <point x="170" y="1522" type="line"/>
      <point x="156" y="1412" type="line"/>
      <point x="304" y="1386" type="line"/>
      <point x="136" y="136" type="line"/>
      <point x="-2" y="106" type="line"/>
    </contour>
    <contour>
      <point x="557" y="654" type="curve"/>
      <point x="659" y="1403" type="line"/>
      <point x="693" y="1410"/>
      <point x="720" y="1412"/>
      <point x="748" y="1412" type="curve" smooth="yes"/>
      <point x="906" y="1412"/>
      <point x="1012" y="1330"/>
      <point x="1011" y="1124" type="curve" smooth="yes"/>
      <point x="1010" y="840"/>
      <point x="880" y="649"/>
      <point x="667" y="646" type="curve" smooth="yes"/>
      <point x="635" y="645"/>
      <point x="598" y="644"/>
    </contour>
  </outline>
</glyph>
<glyph name="Q" format="1">
  <advance width="1464"/>
  <unicode hex="0051"/>
  <outline>
    <contour>
      <point x="702" y="-168" type="move" name="btm"/>
    </contour>
    <contour>
      <point x="944" y="1700" type="move" name="top"/>
    </contour>
    <contour>
      <point x="1010" y="-439" type="curve" smooth="yes"/>
      <point x="1213" y="-439"/>
      <point x="1346" y="-368"/>
      <point x="1398" y="-328" type="curve"/>
      <point x="1396" y="-142" type="line"/>
      <point x="1311" y="-169"/>
      <point x="1168" y="-181"/>
      <point x="1107" y="-181" type="curve" smooth="yes"/>
      <point x="941" y="-181"/>
      <point x="812" y="-165"/>
      <point x="819" y="5" type="curve"/>
      <point x="732" y="54" type="line"/>
      <point x="655" y="-16" type="line"/>
      <point x="562" y="-286"/>
      <point x="665" y="-439"/>
    </contour>
    <component base="O" xOffset="1" yOffset="-1"/>
  </outline>
</glyph>
<glyph name="S" format="1">
  <advance width="1157"/>
  <unicode hex="0053"/>
  <outline>
    <contour>
      <point x="449" y="-170" type="move" name="btm"/>
    </contour>
    <contour>
      <point x="701" y="1700" type="move" name="top"/>
    </contour>
    <contour>
      <point x="14" y="75" type="line"/>
      <point x="59" y="38"/>
      <point x="266" y="-23"/>
      <point x="490" y="-23" type="curve" smooth="yes"/>
      <point x="890" y="-23"/>
      <point x="1077" y="201"/>
      <point x="1077" y="442" type="curve" smooth="yes"/>
      <point x="1077" y="643"/>
      <point x="933" y="783"/>
      <point x="765" y="889" type="curve" smooth="yes"/>
      <point x="570" y="1012"/>
      <point x="482" y="1092"/>
      <point x="482" y="1237" type="curve" smooth="yes"/>
      <point x="482" y="1342"/>
      <point x="564" y="1415"/>
      <point x="709" y="1415" type="curve" smooth="yes"/>
      <point x="807" y="1415"/>
      <point x="847" y="1382"/>
      <point x="910" y="1319" type="curve"/>
      <point x="853" y="1402" type="line"/>
      <point x="888" y="1165" type="line"/>
      <point x="1079" y="1165" type="line"/>
      <point x="1133" y="1467" type="line"/>
      <point x="1069" y="1504"/>
      <point x="951" y="1541"/>
      <point x="734" y="1541" type="curve" smooth="yes"/>
      <point x="405" y="1541"/>
      <point x="165" y="1384"/>
      <point x="165" y="1094" type="curve" smooth="yes"/>
      <point x="165" y="886"/>
      <point x="313" y="746"/>
      <point x="490" y="633" type="curve" smooth="yes"/>
      <point x="676" y="514"/>
      <point x="749" y="437"/>
      <point x="749" y="309" type="curve" smooth="yes"/>
      <point x="749" y="196"/>
      <point x="682" y="106"/>
      <point x="482" y="106" type="curve" smooth="yes"/>
      <point x="315" y="106"/>
      <point x="239" y="211"/>
      <point x="200" y="276" type="curve"/>
      <point x="294" y="123" type="line"/>
      <point x="280" y="393" type="line"/>
      <point x="74" y="393" type="line"/>
    </contour>
  </outline>
</glyph>
<glyph name="T" format="1">
  <advance width="1447"/>
  <unicode hex="0054"/>
  <outline>
    <contour>
      <point x="656" y="-170" type="move" name="btm"/>
    </contour>
    <contour>
      <point x="870" y="1700" type="move" name="top"/>
    </contour>
    <contour>
      <point x="232" y="0" type="line"/>
      <point x="1121" y="0" type="line"/>
      <point x="1131" y="106" type="line"/>
      <point x="847" y="136" type="line"/>
      <point x="1016" y="1402" type="line"/>
      <point x="1256" y="1376" type="line"/>
      <point x="1274" y="937" type="line"/>
      <point x="1455" y="939" type="line"/>
      <point x="1540" y="1522" type="line"/>
      <point x="170" y="1522" type="line"/>
      <point x="71" y="937" type="line"/>
      <point x="259" y="937" type="line"/>
      <point x="424" y="1376" type="line"/>
      <point x="663" y="1402" type="line"/>
      <point x="495" y="136" type="line"/>
      <point x="245" y="106" type="line"/>
    </contour>
  </outline>
</glyph>
<glyph name="Y" format="1">
  <advance width="1301"/>
  <unicode hex="0059"/>
  <outline>
    <contour>
      <point x="561" y="-170" type="move" name="btm"/>
    </contour>
    <contour>
      <point x="830" y="1700" type="move" name="top"/>
    </contour>
    <contour>
      <point x="183" y="0" type="line"/>
      <point x="1011" y="0" type="line"/>
      <point x="1021" y="106" type="line"/>
      <point x="776" y="136" type="line"/>
      <point x="837" y="605" type="line"/>
      <point x="1352" y="1386" type="line"/>
      <point x="1482" y="1412" type="line"/>
      <point x="1497" y="1522" type="line"/>
      <point x="964" y="1522" type="line"/>
      <point x="954" y="1412" type="line"/>
      <point x="1118" y="1386" type="line"/>
      <point x="819" y="881" type="line"/>
      <point x="757" y="760" type="line"/>
      <point x="711" y="908" type="line"/>
      <point x="549" y="1386" type="line"/>
      <point x="720" y="1412" type="line"/>
      <point x="737" y="1522" type="line"/>
      <point x="33" y="1522" type="line"/>
      <point x="21" y="1412" type="line"/>
      <point x="152" y="1386" type="line"/>
      <point x="483" y="605" type="line"/>
      <point x="425" y="136" type="line"/>
      <point x="195" y="106" type="line"/>
    </contour>
  </outline>
</glyph>
<glyph name="Z" format="1">
  <advance width="1226"/>
  <unicode hex="005A"/>
  <outline>
    <contour>
      <point x="591" y="-170" type="move" name="btm"/>
    </contour>
    <contour>
      <point x="765" y="1700" type="move" name="top"/>
    </contour>
    <contour>
      <point x="-21" y="0" type="line"/>
      <point x="1098" y="0" type="line"/>
      <point x="1198" y="435" type="line"/>
      <point x="1024" y="484" type="line"/>
      <point x="827" y="159" type="line"/>
      <point x="342" y="137" type="line"/>
      <point x="454" y="235" type="line"/>
      <point x="1304" y="1436" type="line"/>
      <point x="1274" y="1522" type="line"/>
      <point x="234" y="1522" type="line"/>
      <point x="170" y="1128" type="line"/>
      <point x="345" y="1106" type="line"/>
      <point x="488" y="1376" type="line"/>
      <point x="930" y="1394" type="line"/>
      <point x="807" y="1296" type="line"/>
      <point x="-55" y="89" type="line"/>
    </contour>
  </outline>
</glyph>
<glyph name="backslash" format="1">
  <advance width="854"/>
  <unicode hex="005C"/>
  <outline>
    <contour>
      <point x="602" y="-362" type="line"/>
      <point x="26" y="1597" type="line"/>
      <point x="254" y="1597" type="line"/>
      <point x="831" y="-362" type="line"/>
    </contour>
  </outline>
</glyph>
<glyph name="asciicircum" format="1">
  <advance width="1363"/>
  <unicode hex="005E"/>
  <outline>
    <contour>
      <point x="185" y="413" type="line"/>
      <point x="440" y="413" type="line"/>
      <point x="680" y="1116" type="line"/>
      <point x="921" y="413" type="line"/>
      <point x="1178" y="413" type="line"/>
      <point x="781" y="1531" type="line"/>
      <point x="577" y="1531" type="line"/>
    </contour>
  </outline>
</glyph>
<glyph name="grave" format="1">
  <advance width="541"/>
  <unicode hex="0060"/>
  <outline>
    <contour>
      <point x="442" y="1255" type="move" name="_top"/>
    </contour>
    <contour>
      <point x="386" y="1241" type="curve"/>
      <point x="491" y="1311" type="line"/>
      <point x="203" y="1743" type="line"/>
      <point x="0" y="1566" type="line"/>
      <point x="64" y="1454"/>
      <point x="303" y="1276"/>
    </contour>
  </outline>
</glyph>
<glyph name="a" format="1">
  <advance width="1215"/>
  <unicode hex="0061"/>
  <outline>
    <contour>
      <point x="1183" y="1660" type="move" name="caron"/>
    </contour>
    <contour>
      <point x="763" y="1255" type="move" name="top"/>
    </contour>
    <contour>
      <point x="887" y="-20" type="curve" smooth="yes"/>
      <point x="1044" y="-20"/>
      <point x="1142" y="88"/>
      <point x="1167" y="124" type="curve"/>
      <point x="1139" y="197" type="line"/>
      <point x="1091" y="160"/>
      <point x="1065" y="151"/>
      <point x="1046" y="151" type="curve" smooth="yes"/>
      <point x="1016" y="151"/>
      <point x="1001" y="173"/>
      <point x="1007" y="227" type="curve" smooth="yes"/>
      <point x="1136" y="1163" type="line"/>
      <point x="939" y="1108" type="line"/>
      <point x="797" y="1067" type="line"/>
      <point x="669" y="129" type="line"/>
      <point x="717" y="115" type="line"/>
      <point x="715" y="28"/>
      <point x="785" y="-20"/>
    </contour>
    <contour>
      <point x="60" y="402" type="curve" smooth="yes"/>
      <point x="60" y="172"/>
      <point x="163" y="-20"/>
      <point x="413" y="-20" type="curve" smooth="yes"/>
      <point x="652" y="-20"/>
      <point x="778" y="162"/>
      <point x="800" y="229" type="curve"/>
      <point x="769" y="334" type="line"/>
      <point x="740" y="263"/>
      <point x="656" y="154"/>
      <point x="554" y="154" type="curve" smooth="yes"/>
      <point x="463" y="154"/>
      <point x="406" y="249"/>
      <point x="406" y="413" type="curve" smooth="yes"/>
      <point x="406" y="680"/>
      <point x="479" y="1023"/>
      <point x="722" y="1023" type="curve" smooth="yes"/>
      <point x="808" y="1023"/>
      <point x="880" y="1002"/>
      <point x="926" y="927" type="curve"/>
      <point x="1000" y="1115" type="line"/>
      <point x="941" y="1137"/>
      <point x="833" y="1163"/>
      <point x="746" y="1163" type="curve" smooth="yes"/>
      <point x="293" y="1163"/>
      <point x="60" y="791"/>
    </contour>
  </outline>
</glyph>
<glyph name="d" format="1">
  <advance width="1255"/>
  <unicode hex="0064"/>
  <outline>
    <contour>
      <point x="1169" y="1660" type="move" name="caron"/>
    </contour>
    <contour>
      <point x="443" y="1255" type="move" name="top"/>
    </contour>
    <contour>
      <point x="912" y="-20" type="curve" smooth="yes"/>
      <point x="1076" y="-20"/>
      <point x="1168" y="97"/>
      <point x="1191" y="124" type="curve"/>
      <point x="1163" y="197" type="line"/>
      <point x="1114" y="160"/>
      <point x="1090" y="151"/>
      <point x="1071" y="151" type="curve" smooth="yes"/>
      <point x="1039" y="151"/>
      <point x="1029" y="181"/>
      <point x="1036" y="229" type="curve" smooth="yes"/>
      <point x="1238" y="1623" type="line"/>
      <point x="1182" y="1650" type="line"/>
      <point x="750" y="1608" type="line"/>
      <point x="731" y="1525" type="line"/>
      <point x="887" y="1482" type="line"/>
      <point x="698" y="192" type="line"/>
      <point x="735" y="181" type="line"/>
      <point x="735" y="50"/>
      <point x="782" y="-20"/>
    </contour>
    <contour>
      <point x="404" y="-20" type="curve" smooth="yes"/>
      <point x="643" y="-20"/>
      <point x="759" y="162"/>
      <point x="781" y="229" type="curve"/>
      <point x="750" y="334" type="line"/>
      <point x="721" y="263"/>
      <point x="647" y="154"/>
      <point x="545" y="154" type="curve" smooth="yes"/>
      <point x="454" y="154"/>
      <point x="401" y="249"/>
      <point x="401" y="413" type="curve" smooth="yes"/>
      <point x="401" y="680"/>
      <point x="470" y="1023"/>
      <point x="713" y="1023" type="curve" smooth="yes"/>
      <point x="799" y="1023"/>
      <point x="871" y="1002"/>
      <point x="917" y="927" type="curve"/>
      <point x="991" y="1115" type="line"/>
      <point x="932" y="1137"/>
      <point x="824" y="1163"/>
      <point x="737" y="1163" type="curve" smooth="yes"/>
      <point x="274" y="1163"/>
      <point x="60" y="791"/>
      <point x="60" y="402" type="curve" smooth="yes"/>
      <point x="60" y="172"/>
      <point x="154" y="-20"/>
    </contour>
  </outline>
</glyph>
<glyph name="m" format="1">
  <advance width="1959"/>
  <unicode hex="006D"/>
  <outline>
    <contour>
      <point x="1067" y="1255" type="move" name="top"/>
    </contour>
    <contour>
      <point x="82" y="0" type="line"/>
      <point x="405" y="0" type="line"/>
      <point x="531" y="912" type="line"/>
      <point x="548" y="1139" type="line"/>
      <point x="495" y="1163" type="line"/>
      <point x="123" y="1111" type="line"/>
      <point x="106" y="1022" type="line"/>
      <point x="222" y="958" type="line"/>
      <point x="218" y="991" type="line"/>
    </contour>
    <contour>
      <point x="748" y="0" type="line"/>
      <point x="1083" y="0" type="line"/>
      <point x="1142" y="505" type="line" smooth="yes"/>
      <point x="1158" y="617"/>
      <point x="1170" y="761"/>
      <point x="1169" y="861" type="curve" smooth="yes"/>
      <point x="1166" y="1087"/>
      <point x="1054" y="1163"/>
      <point x="894" y="1163" type="curve" smooth="yes"/>
      <point x="702" y="1163"/>
      <point x="550" y="1000"/>
      <point x="477" y="818" type="curve"/>
      <point x="487" y="698" type="line"/>
      <point x="545" y="839"/>
      <point x="664" y="965"/>
      <point x="742" y="965" type="curve" smooth="yes"/>
      <point x="805" y="965"/>
      <point x="832" y="945"/>
      <point x="835" y="820" type="curve" smooth="yes"/>
      <point x="838" y="704"/>
      <point x="819" y="552"/>
      <point x="805" y="443" type="curve" smooth="yes"/>
    </contour>
    <contour>
      <point x="1148" y="718" type="line"/>
      <point x="1208" y="864"/>
      <point x="1318" y="965"/>
      <point x="1403" y="965" type="curve" smooth="yes"/>
      <point x="1456" y="965"/>
      <point x="1480" y="935"/>
      <point x="1482" y="825" type="curve" smooth="yes"/>
      <point x="1484" y="709"/>
      <point x="1456" y="550"/>
      <point x="1437" y="443" type="curve" smooth="yes"/>
      <point x="1416" y="331"/>
      <point x="1391" y="206"/>
      <point x="1391" y="150" type="curve" smooth="yes"/>
      <point x="1391" y="73"/>
      <point x="1414" y="-21"/>
      <point x="1594" y="-21" type="curve" smooth="yes"/>
      <point x="1774" y="-21"/>
      <point x="1872" y="95"/>
      <point x="1894" y="124" type="curve"/>
      <point x="1866" y="197" type="line"/>
      <point x="1818" y="161"/>
      <point x="1798" y="151"/>
      <point x="1776" y="151" type="curve" smooth="yes"/>
      <point x="1756" y="151"/>
      <point x="1737" y="158"/>
      <point x="1737" y="206" type="curve" smooth="yes"/>
      <point x="1737" y="280"/>
      <point x="1762" y="403"/>
      <point x="1779" y="505" type="curve" smooth="yes"/>
      <point x="1798" y="617"/>
      <point x="1828" y="801"/>
      <point x="1828" y="861" type="curve" smooth="yes"/>
      <point x="1828" y="1085"/>
      <point x="1717" y="1163"/>
      <point x="1563" y="1163" type="curve" smooth="yes"/>
      <point x="1367" y="1163"/>
      <point x="1217" y="1048"/>
      <point x="1133" y="849" type="curve" smooth="yes"/>
    </contour>
  </outline>
</glyph>
<glyph name="braceleft" format="1">
  <advance width="1044"/>
  <unicode hex="007B"/>
  <outline>
    <contour>
      <point x="222" y="-83" type="curve" smooth="yes"/>
      <point x="221" y="-193"/>
      <point x="345" y="-226"/>
      <point x="470" y="-226" type="curve" smooth="yes"/>
      <point x="580" y="-226"/>
      <point x="654" y="-205"/>
      <point x="745" y="-179" type="curve"/>
      <point x="745" y="-179"/>
      <point x="758" y="-70"/>
      <point x="761" y="-55" type="curve"/>
      <point x="486" y="-55" type="line"/>
      <point x="581" y="575" type="line" smooth="yes"/>
      <point x="587" y="616"/>
      <point x="570" y="653"/>
      <point x="540" y="684" type="curve" smooth="yes"/>
      <point x="511" y="714"/>
      <point x="457" y="745"/>
      <point x="398" y="776" type="curve"/>
      <point x="398" y="776"/>
      <point x="514" y="829"/>
      <point x="543" y="846" type="curve" smooth="yes"/>
      <point x="596" y="879"/>
      <point x="633" y="916"/>
      <point x="641" y="970" type="curve" smooth="yes"/>
      <point x="737" y="1601" type="line"/>
      <point x="1013" y="1601" type="line"/>
      <point x="1014" y="1620"/>
      <point x="1033" y="1718"/>
      <point x="1033" y="1718" type="curve"/>
      <point x="1033" y="1718"/>
      <point x="862" y="1765"/>
      <point x="773" y="1765" type="curve" smooth="yes"/>
      <point x="616" y="1765"/>
      <point x="489" y="1711"/>
      <point x="458" y="1513" type="curve"/>
      <point x="374" y="966" type="line"/>
      <point x="370" y="943"/>
      <point x="345" y="922"/>
      <point x="309" y="903" type="curve" smooth="yes"/>
      <point x="257" y="876"/>
      <point x="182" y="854"/>
      <point x="117" y="838" type="curve"/>
      <point x="99" y="714" type="line"/>
      <point x="158" y="700"/>
      <point x="221" y="675"/>
      <point x="264" y="646" type="curve" smooth="yes"/>
      <point x="296" y="625"/>
      <point x="316" y="601"/>
      <point x="316" y="579" type="curve"/>
      <point x="316" y="579"/>
      <point x="223" y="-54"/>
    </contour>
  </outline>
</glyph>
<glyph name="cent" format="1">
  <advance width="1056"/>
  <unicode hex="00A2"/>
  <outline>
    <contour>
      <point x="603" y="1054" type="line"/>
      <point x="752" y="1054" type="line"/>
      <point x="819" y="1358" type="line"/>
      <point x="669" y="1358" type="line"/>
    </contour>
    <contour>
      <point x="365" y="-215" type="line"/>
      <point x="515" y="-215" type="line"/>
      <point x="574" y="103" type="line"/>
      <point x="424" y="103" type="line"/>
    </contour>
    <component base="c" xOffset="58"/>
  </outline>
</glyph>
<glyph name="yen" format="1">
  <advance width="1483"/>
  <unicode hex="00A5"/>
  <outline>
    <contour>
      <point x="274" y="0" type="line"/>
      <point x="1145" y="0" type="line"/>
      <point x="1155" y="106" type="line"/>
      <point x="862" y="136" type="line"/>
      <point x="935" y="700" type="line"/>
      <point x="1465" y="1392" type="line"/>
      <point x="1595" y="1420" type="line"/>
      <point x="1610" y="1532" type="line"/>
      <point x="1051" y="1532" type="line"/>
      <point x="1036" y="1420" type="line"/>
      <point x="1156" y="1402" type="line"/>
      <point x="934" y="1044" type="line"/>
      <point x="841" y="904" type="line"/>
      <point x="786" y="1044" type="line"/>
      <point x="652" y="1394" type="line"/>
      <point x="834" y="1420" type="line"/>
      <point x="849" y="1532" type="line"/>
      <point x="166" y="1532" type="line"/>
      <point x="151" y="1420" type="line"/>
      <point x="265" y="1394" type="line"/>
      <point x="635" y="700" type="line"/>
      <point x="565" y="136" type="line"/>
      <point x="286" y="106" type="line"/>
    </contour>
    <contour>
      <point x="276" y="700" type="line"/>
      <point x="1262" y="700" type="line"/>
      <point x="1280" y="852" type="line"/>
      <point x="294" y="852" type="line"/>
    </contour>
    <contour>
      <point x="239" y="376" type="line"/>
      <point x="1224" y="376" type="line"/>
      <point x="1240" y="524" type="line"/>
      <point x="255" y="524" type="line"/>
    </contour>
  </outline>
</glyph>
<glyph name="section" format="1">
  <advance width="1194"/>
  <unicode hex="00A7"/>
  <outline>
    <contour>
      <point x="820" y="479" type="curve"/>
      <point x="900" y="365" type="line"/>
      <point x="1004" y="442"/>
      <point x="1125" y="550"/>
      <point x="1125" y="768" type="curve" smooth="yes"/>
      <point x="1125" y="1167"/>
      <point x="494" y="1112"/>
      <point x="494" y="1384" type="curve" smooth="yes"/>
      <point x="494" y="1512"/>
      <point x="621" y="1530"/>
      <point x="726" y="1530" type="curve" smooth="yes"/>
      <point x="798" y="1530"/>
      <point x="851" y="1505"/>
      <point x="881" y="1477" type="curve"/>
      <point x="908" y="1270" type="line"/>
      <point x="1097" y="1270" type="line"/>
      <point x="1153" y="1598" type="line"/>
      <point x="1099" y="1632"/>
      <point x="936" y="1673"/>
      <point x="759" y="1673" type="curve" smooth="yes"/>
      <point x="482" y="1673"/>
      <point x="205" y="1527"/>
      <point x="205" y="1294" type="curve" smooth="yes"/>
      <point x="205" y="890"/>
      <point x="891" y="875"/>
      <point x="891" y="627" type="curve" smooth="yes"/>
      <point x="891" y="555"/>
      <point x="864" y="524"/>
    </contour>
    <contour>
      <point x="68" y="-111" type="line"/>
      <point x="124" y="-139"/>
      <point x="313" y="-186"/>
      <point x="490" y="-186" type="curve" smooth="yes"/>
      <point x="777" y="-186"/>
      <point x="1034" y="-50"/>
      <point x="1034" y="183" type="curve"/>
      <point x="1034" y="593"/>
      <point x="338" y="618"/>
      <point x="338" y="870" type="curve" smooth="yes"/>
      <point x="338" y="942"/>
      <point x="375" y="973"/>
      <point x="419" y="1018" type="curve"/>
      <point x="339" y="1132" type="line"/>
      <point x="235" y="1055"/>
      <point x="98" y="954"/>
      <point x="98" y="768" type="curve" smooth="yes"/>
      <point x="98" y="349"/>
      <point x="745" y="342"/>
      <point x="745" y="123" type="curve" smooth="yes"/>
      <point x="745" y="-15"/>
      <point x="614" y="-39"/>
      <point x="519" y="-40" type="curve" smooth="yes"/>
      <point x="423" y="-41"/>
      <point x="370" y="-10"/>
      <point x="337" y="30" type="curve"/>
      <point x="313" y="237" type="line"/>
      <point x="124" y="237" type="line"/>
    </contour>
  </outline>
</glyph>
<glyph name="registered" format="1">
  <advance width="1768"/>
  <unicode hex="00AE"/>
  <outline>
    <contour>
      <point x="562" y="375" type="line"/>
      <point x="926" y="375" type="line"/>
      <point x="926" y="449" type="line"/>
      <point x="834" y="469" type="line"/>
      <point x="834" y="720" type="line"/>
      <point x="903" y="720" type="line"/>
      <point x="1059" y="559"/>
      <point x="1050" y="375"/>
      <point x="1128" y="375" type="curve" smooth="yes"/>
      <point x="1338" y="375" type="line"/>
      <point x="1338" y="453" type="line"/>
      <point x="1322" y="453"/>
      <point x="1309" y="456"/>
      <point x="1291" y="465" type="curve"/>
      <point x="1212" y="520"/>
      <point x="1207" y="663"/>
      <point x="1075" y="737" type="curve"/>
      <point x="1276" y="803"/>
      <point x="1290" y="907"/>
      <point x="1290" y="1014" type="curve"/>
      <point x="1286" y="1152"/>
      <point x="1171" y="1245"/>
      <point x="954" y="1245" type="curve"/>
      <point x="804" y="1242"/>
      <point x="788" y="1238"/>
      <point x="716" y="1240" type="curve"/>
      <point x="562" y="1240" type="line"/>
      <point x="562" y="1156" type="line"/>
      <point x="645" y="1134" type="line"/>
      <point x="645" y="469" type="line"/>
      <point x="562" y="449" type="line"/>
    </contour>
    <contour>
      <point x="834" y="848" type="curve"/>
      <point x="834" y="1115" type="line"/>
      <point x="884" y="1127"/>
      <point x="886" y="1125"/>
      <point x="927" y="1125" type="curve" smooth="yes"/>
      <point x="1020" y="1125"/>
      <point x="1083" y="1087"/>
      <point x="1083" y="993" type="curve" smooth="yes"/>
      <point x="1083" y="906"/>
      <point x="1041" y="840"/>
      <point x="952" y="840" type="curve" smooth="yes"/>
      <point x="903" y="840"/>
      <point x="868" y="841"/>
    </contour>
    <contour>
      <point x="158" y="806" type="curve" smooth="yes"/>
      <point x="158" y="376"/>
      <point x="506" y="32"/>
      <point x="933" y="32" type="curve" smooth="yes"/>
      <point x="1360" y="32"/>
      <point x="1709" y="376"/>
      <point x="1709" y="806" type="curve" smooth="yes"/>
      <point x="1709" y="1235"/>
      <point x="1360" y="1579"/>
      <point x="933" y="1579" type="curve" smooth="yes"/>
      <point x="506" y="1579"/>
      <point x="158" y="1235"/>
    </contour>
    <contour>
      <point x="297" y="806" type="curve" smooth="yes"/>
      <point x="297" y="1162"/>
      <point x="577" y="1454"/>
      <point x="933" y="1454" type="curve" smooth="yes"/>
      <point x="1290" y="1454"/>
      <point x="1570" y="1162"/>
      <point x="1570" y="806" type="curve" smooth="yes"/>
      <point x="1570" y="449"/>
      <point x="1290" y="158"/>
      <point x="933" y="158" type="curve" smooth="yes"/>
      <point x="577" y="158"/>
      <point x="297" y="449"/>
    </contour>
  </outline>
</glyph>
<glyph name="degree" format="1">
  <advance width="957"/>
  <unicode hex="00B0"/>
  <outline>
    <contour>
      <point x="530" y="1091" type="curve" smooth="yes"/>
      <point x="432" y="1091"/>
      <point x="356" y="1175"/>
      <point x="358" y="1278" type="curve" smooth="yes"/>
      <point x="359" y="1384"/>
      <point x="434" y="1464"/>
      <point x="537" y="1464" type="curve" smooth="yes"/>
      <point x="635" y="1464"/>
      <point x="712" y="1381"/>
      <point x="710" y="1278" type="curve" smooth="yes"/>
      <point x="709" y="1171"/>
      <point x="633" y="1091"/>
    </contour>
    <contour>
      <point x="522" y="934" type="curve" smooth="yes"/>
      <point x="728" y="934"/>
      <point x="883" y="1081"/>
      <point x="886" y="1278" type="curve" smooth="yes"/>
      <point x="889" y="1467"/>
      <point x="740" y="1621"/>
      <point x="543" y="1621" type="curve" smooth="yes"/>
      <point x="337" y="1621"/>
      <point x="185" y="1473"/>
      <point x="182" y="1278" type="curve" smooth="yes"/>
      <point x="179" y="1089"/>
      <point x="325" y="934"/>
    </contour>
  </outline>
</glyph>
<glyph name="paragraph" format="1">
  <advance width="1364"/>
  <unicode hex="00B6"/>
  <outline>
    <contour>
      <point x="136" y="0" type="line"/>
      <point x="605" y="0" type="line"/>
      <point x="782" y="1414" type="line"/>
      <point x="976" y="1414" type="line"/>
      <point x="801" y="0" type="line"/>
      <point x="1242" y="0" type="line"/>
      <point x="1251" y="86" type="line"/>
      <point x="1082" y="119" type="line"/>
      <point x="1093" y="90" type="line"/>
      <point x="1143" y="511"/>
      <point x="1210" y="994"/>
      <point x="1260" y="1416" type="curve"/>
      <point x="1427" y="1449" type="line"/>
      <point x="1438" y="1552" type="line"/>
      <point x="1141" y="1552" type="line"/>
      <point x="941" y="1557"/>
      <point x="887" y="1571"/>
      <point x="715" y="1571" type="curve" smooth="yes"/>
      <point x="259" y="1571"/>
      <point x="60" y="1394"/>
      <point x="60" y="1073" type="curve" smooth="yes"/>
      <point x="60" y="855"/>
      <point x="222" y="678"/>
      <point x="422" y="678" type="curve"/>
      <point x="347" y="101" type="line"/>
      <point x="361" y="119" type="line"/>
      <point x="144" y="87" type="line"/>
    </contour>
  </outline>
</glyph>
<glyph name="Aring" format="1">
  <advance width="1351"/>
  <unicode hex="00C5"/>
  <outline>
    <contour>
      <point x="817" y="1630" type="curve" smooth="yes"/>
      <point x="750" y="1630"/>
      <point x="670" y="1673"/>
      <point x="670" y="1744" type="curve" smooth="yes"/>
      <point x="670" y="1852"/>
      <point x="771" y="1878"/>
      <point x="847" y="1878" type="curve" smooth="yes"/>
      <point x="916" y="1878"/>
      <point x="992" y="1836"/>
      <point x="992" y="1763" type="curve" smooth="yes"/>
      <point x="992" y="1648"/>
      <point x="894" y="1630"/>
    </contour>
    <contour>
      <point x="805" y="1491" type="curve" smooth="yes"/>
      <point x="987" y="1491"/>
      <point x="1185" y="1578"/>
      <point x="1185" y="1791" type="curve" smooth="yes"/>
      <point x="1185" y="1940"/>
      <point x="1047" y="2014"/>
      <point x="872" y="2014" type="curve" smooth="yes"/>
      <point x="717" y="2014"/>
      <point x="476" y="1956"/>
      <point x="476" y="1721" type="curve" smooth="yes"/>
      <point x="476" y="1563"/>
      <point x="616" y="1491"/>
    </contour>
    <component base="A"/>
  </outline>
</glyph>
<glyph name="Oslash" format="1">
  <advance width="1462"/>
  <unicode hex="00D8"/>
  <outline>
    <contour>
      <point x="120" y="-73" type="line"/>
      <point x="209" y="-132" type="line"/>
      <point x="367" y="101" type="line"/>
      <point x="481" y="248" type="line"/>
      <point x="1056" y="1190" type="line"/>
      <point x="1194" y="1372" type="line"/>
      <point x="1370" y="1621" type="line"/>
      <point x="1281" y="1680" type="line"/>
      <point x="1105" y="1422" type="line"/>
      <point x="1020" y="1294" type="line"/>
      <point x="434" y="340" type="line"/>
      <point x="299" y="182" type="line"/>
    </contour>
    <component base="O" xOffset="4" yOffset="2"/>
  </outline>
</glyph>
<glyph name="ae" format="1">
  <advance width="1742"/>
  <unicode hex="00E6"/>
  <outline>
    <contour>
      <point x="968" y="1255" type="move" name="top"/>
    </contour>
    <contour>
      <point x="683" y="241" type="line"/>
      <point x="1025" y="509" type="line"/>
      <point x="1107" y="1163" type="line"/>
      <point x="963" y="1115" type="line"/>
      <point x="806" y="1052" type="line"/>
    </contour>
    <contour>
      <point x="733" y="430" type="curve" smooth="yes"/>
      <point x="734" y="202"/>
      <point x="840" y="-20"/>
      <point x="1161" y="-20" type="curve" smooth="yes"/>
      <point x="1418" y="-20"/>
      <point x="1576" y="124"/>
      <point x="1631" y="212" type="curve"/>
      <point x="1567" y="315" type="line"/>
      <point x="1514" y="246"/>
      <point x="1428" y="159"/>
      <point x="1269" y="159" type="curve" smooth="yes"/>
      <point x="1153" y="159"/>
      <point x="1082" y="247"/>
      <point x="1082" y="455" type="curve"/>
      <point x="1334" y="461"/>
      <point x="1711" y="583"/>
      <point x="1701" y="913" type="curve"/>
      <point x="1695" y="1054"/>
      <point x="1600" y="1163"/>
      <point x="1372" y="1163" type="curve" smooth="yes"/>
      <point x="1005" y="1163"/>
      <point x="731" y="857"/>
    </contour>
    <contour>
      <point x="1082" y="575" type="curve"/>
      <point x="1093" y="761"/>
      <point x="1144" y="1025"/>
      <point x="1298" y="1025" type="curve" smooth="yes"/>
      <point x="1351" y="1025"/>
      <point x="1376" y="977"/>
      <point x="1380" y="886" type="curve"/>
      <point x="1386" y="689"/>
      <point x="1199" y="582"/>
    </contour>
    <contour>
      <point x="373" y="-20" type="curve" smooth="yes"/>
      <point x="631" y="-20"/>
      <point x="813" y="317"/>
      <point x="835" y="384" type="curve"/>
      <point x="796" y="494" type="line"/>
      <point x="770" y="445"/>
      <point x="624" y="180"/>
      <point x="494" y="180" type="curve" smooth="yes"/>
      <point x="423" y="180"/>
      <point x="406" y="309"/>
      <point x="406" y="413" type="curve" smooth="yes"/>
      <point x="406" y="680"/>
      <point x="532" y="1023"/>
      <point x="807" y="1023" type="curve" smooth="yes"/>
      <point x="893" y="1023"/>
      <point x="950" y="1002"/>
      <point x="996" y="927" type="curve"/>
      <point x="1078" y="1115" type="line"/>
      <point x="1019" y="1137"/>
      <point x="903" y="1163"/>
      <point x="816" y="1163" type="curve" smooth="yes"/>
      <point x="335" y="1163"/>
      <point x="60" y="781"/>
      <point x="60" y="392" type="curve" smooth="yes"/>
      <point x="60" y="182"/>
      <point x="123" y="-20"/>
    </contour>
  </outline>
</glyph>
<glyph name="eth" format="1">
  <advance width="1193"/>
  <unicode hex="00F0"/>
  <outline>
    <contour>
      <point x="60" y="462" type="curve" smooth="yes"/>
      <point x="60" y="238"/>
      <point x="199" y="-20"/>
      <point x="496" y="-20" type="curve" smooth="yes"/>
      <point x="901" y="-20"/>
      <point x="1139" y="326"/>
      <point x="1139" y="802" type="curve" smooth="yes"/>
      <point x="1139" y="1079"/>
      <point x="1034" y="1375"/>
      <point x="806" y="1582" type="curve" smooth="yes"/>
      <point x="686" y="1691"/>
      <point x="527" y="1764"/>
      <point x="422" y="1794" type="curve"/>
      <point x="367" y="1635" type="line"/>
      <point x="457" y="1606"/>
      <point x="573" y="1511"/>
      <point x="654" y="1427" type="curve" smooth="yes"/>
      <point x="757" y="1304"/>
      <point x="798" y="1163"/>
      <point x="796" y="1081" type="curve"/>
      <point x="756" y="1104"/>
      <point x="709" y="1110"/>
      <point x="616" y="1110" type="curve" smooth="yes"/>
      <point x="296" y="1110"/>
      <point x="60" y="866"/>
    </contour>
    <contour>
      <point x="525" y="107" type="curve" smooth="yes"/>
      <point x="426" y="107"/>
      <point x="397" y="245"/>
      <point x="397" y="400" type="curve" smooth="yes"/>
      <point x="397" y="633"/>
      <point x="463" y="974"/>
      <point x="626" y="974" type="curve" smooth="yes"/>
      <point x="783" y="974"/>
      <point x="803" y="796"/>
      <point x="800" y="728" type="curve" smooth="yes"/>
      <point x="798" y="686"/>
      <point x="783" y="566"/>
      <point x="781" y="551" type="curve" smooth="yes"/>
      <point x="755" y="307"/>
      <point x="658" y="107"/>
    </contour>
    <contour>
      <point x="543" y="1245" type="line"/>
      <point x="738" y="1470" type="line"/>
      <point x="765" y="1489" type="line"/>
      <point x="972" y="1728" type="line"/>
      <point x="859" y="1829" type="line"/>
      <point x="859" y="1829"/>
      <point x="694" y="1621"/>
      <point x="643" y="1574" type="curve"/>
      <point x="619" y="1555" type="line"/>
      <point x="427" y="1343" type="line"/>
    </contour>
  </outline>
</glyph>
<glyph name="thorn" format="1">
  <advance width="1202"/>
  <unicode hex="00FE"/>
  <outline>
    <contour>
      <point x="66" y="-20" type="line"/>
      <point x="-5" y="-520" type="line"/>
      <point x="309" y="-520" type="line"/>
      <point x="356" y="-142" type="line"/>
      <point x="367" y="18" type="line"/>
      <point x="220" y="60" type="line"/>
    </contour>
    <component base="b"/>
  </outline>
</glyph>
<glyph name="aogonek" format="1">
  <advance width="1215"/>
  <unicode hex="0105"/>
  <outline>
    <contour>
      <point x="582" y="-182" type="curve" smooth="yes"/>
      <point x="556" y="-220"/>
      <point x="537" y="-273"/>
      <point x="537" y="-306" type="curve" smooth="yes"/>
      <point x="537" y="-411"/>
      <point x="601" y="-480"/>
      <point x="730" y="-480" type="curve" smooth="yes"/>
      <point x="875" y="-480"/>
      <point x="993" y="-409"/>
      <point x="1074" y="-326" type="curve"/>
      <point x="1038" y="-212" type="line"/>
      <point x="982" y="-256"/>
      <point x="940" y="-287"/>
      <point x="885" y="-287" type="curve" smooth="yes"/>
      <point x="846" y="-287"/>
      <point x="818" y="-272"/>
      <point x="818" y="-215" type="curve" smooth="yes"/>
      <point x="818" y="-141"/>
      <point x="934" y="-48"/>
      <point x="1070" y="38" type="curve"/>
      <point x="949" y="59" type="line"/>
      <point x="887" y="45" type="line"/>
      <point x="796" y="-2"/>
      <point x="685" y="-33"/>
    </contour>
    <component base="a"/>
  </outline>
</glyph>
<glyph name="Eogonek" format="1">
  <advance width="1325"/>
  <unicode hex="0118"/>
  <outline>
    <contour>
      <point x="689" y="-182" type="curve" smooth="yes"/>
      <point x="663" y="-220"/>
      <point x="644" y="-273"/>
      <point x="644" y="-306" type="curve" smooth="yes"/>
      <point x="644" y="-411"/>
      <point x="708" y="-480"/>
      <point x="837" y="-480" type="curve" smooth="yes"/>
      <point x="982" y="-480"/>
      <point x="1100" y="-409"/>
      <point x="1181" y="-326" type="curve"/>
      <point x="1145" y="-212" type="line"/>
      <point x="1089" y="-256"/>
      <point x="1047" y="-287"/>
      <point x="992" y="-287" type="curve" smooth="yes"/>
      <point x="953" y="-287"/>
      <point x="925" y="-272"/>
      <point x="925" y="-215" type="curve" smooth="yes"/>
      <point x="925" y="-141"/>
      <point x="1041" y="-48"/>
      <point x="1177" y="38" type="curve"/>
      <point x="1056" y="59" type="line"/>
      <point x="994" y="45" type="line"/>
      <point x="903" y="-2"/>
      <point x="792" y="-33"/>
    </contour>
    <component base="E"/>
  </outline>
</glyph>
<glyph name="eogonek" format="1">
  <advance width="1080"/>
  <unicode hex="0119"/>
  <outline>
    <contour>
      <point x="381" y="-192" type="curve" smooth="yes"/>
      <point x="359" y="-226"/>
      <point x="346" y="-276"/>
      <point x="346" y="-306" type="curve" smooth="yes"/>
      <point x="346" y="-411"/>
      <point x="410" y="-480"/>
      <point x="539" y="-480" type="curve" smooth="yes"/>
      <point x="684" y="-480"/>
      <point x="802" y="-409"/>
      <point x="883" y="-326" type="curve"/>
      <point x="847" y="-212" type="line"/>
      <point x="791" y="-256"/>
      <point x="749" y="-287"/>
      <point x="694" y="-287" type="curve" smooth="yes"/>
      <point x="655" y="-287"/>
      <point x="627" y="-262"/>
      <point x="627" y="-205" type="curve" smooth="yes"/>
      <point x="627" y="-111"/>
      <point x="767" y="31"/>
      <point x="893" y="121" type="curve"/>
      <point x="772" y="142" type="line"/>
      <point x="710" y="98" type="line"/>
      <point x="616" y="49"/>
      <point x="477" y="-38"/>
    </contour>
    <component base="e"/>
  </outline>
</glyph>
<glyph name="hbar" format="1">
  <advance width="1296"/>
  <unicode hex="0127"/>
  <outline>
    <contour>
      <point x="91" y="1262" type="line"/>
      <point x="773" y="1262" type="line"/>
      <point x="789" y="1392" type="line"/>
      <point x="107" y="1392" type="line"/>
    </contour>
    <component base="h"/>
  </outline>
</glyph>
<glyph name="Iogonek" format="1">
  <advance width="767"/>
  <unicode hex="012E"/>
  <outline>
    <contour>
      <point x="12" y="-182" type="curve" smooth="yes"/>
      <point x="-14" y="-220"/>
      <point x="-33" y="-273"/>
      <point x="-33" y="-306" type="curve" smooth="yes"/>
      <point x="-33" y="-411"/>
      <point x="31" y="-480"/>
      <point x="160" y="-480" type="curve" smooth="yes"/>
      <point x="305" y="-480"/>
      <point x="423" y="-409"/>
      <point x="504" y="-326" type="curve"/>
      <point x="468" y="-212" type="line"/>
      <point x="412" y="-256"/>
      <point x="370" y="-287"/>
      <point x="315" y="-287" type="curve" smooth="yes"/>
      <point x="276" y="-287"/>
      <point x="248" y="-272"/>
      <point x="248" y="-215" type="curve" smooth="yes"/>
      <point x="248" y="-141"/>
      <point x="364" y="-48"/>
      <point x="500" y="38" type="curve"/>
      <point x="379" y="59" type="line"/>
      <point x="317" y="45" type="line"/>
      <point x="226" y="-2"/>
      <point x="115" y="-33"/>
    </contour>
    <component base="I"/>
  </outline>
</glyph>
<glyph name="lacute" format="1">
  <advance width="634"/>
  <unicode hex="013A"/>
  <outline>
    <contour>
      <point x="608" y="1503" type="line"/>
      <point x="557" y="1530" type="line"/>
      <point x="151" y="1488" type="line"/>
      <point x="131" y="1405" type="line"/>
      <point x="263" y="1362" type="line"/>
      <point x="92" y="192" type="line" smooth="yes"/>
      <point x="90" y="176"/>
      <point x="84" y="139"/>
      <point x="84" y="115" type="curve" smooth="yes"/>
      <point x="86" y="17"/>
      <point x="191" y="-20"/>
      <point x="299" y="-20" type="curve" smooth="yes"/>
      <point x="463" y="-20"/>
      <point x="557" y="95"/>
      <point x="579" y="124" type="curve"/>
      <point x="551" y="197" type="line"/>
      <point x="499" y="158"/>
      <point x="480" y="151"/>
      <point x="459" y="151" type="curve" smooth="yes"/>
      <point x="427" y="151"/>
      <point x="417" y="180"/>
      <point x="424" y="227" type="curve" smooth="yes"/>
    </contour>
    <component base="acute.cap" xOffset="315"/>
  </outline>
</glyph>
<glyph name="uni0259" format="1">
  <advance width="1048"/>
  <unicode hex="0259"/>
  <outline>
    <contour>
      <point x="985" y="709" type="curve" smooth="yes"/>
      <point x="984" y="937"/>
      <point x="868" y="1168"/>
      <point x="547" y="1168" type="curve" smooth="yes"/>
      <point x="290" y="1168"/>
      <point x="132" y="1015"/>
      <point x="77" y="927" type="curve"/>
      <point x="141" y="824" type="line"/>
      <point x="194" y="893"/>
      <point x="280" y="989"/>
      <point x="439" y="989" type="curve" smooth="yes"/>
      <point x="555" y="989"/>
      <point x="626" y="892"/>
      <point x="626" y="684" type="curve"/>
      <point x="374" y="678"/>
      <point x="-3" y="556"/>
      <point x="7" y="226" type="curve" smooth="yes"/>
      <point x="13" y="85"/>
      <point x="108" y="-26"/>
      <point x="336" y="-26" type="curve" smooth="yes"/>
      <point x="703" y="-26"/>
      <point x="987" y="282"/>
    </contour>
    <contour>
      <point x="626" y="564" type="curve"/>
      <point x="615" y="378"/>
      <point x="564" y="114"/>
      <point x="410" y="114" type="curve" smooth="yes"/>
      <point x="357" y="114"/>
      <point x="332" y="162"/>
      <point x="328" y="253" type="curve" smooth="yes"/>
      <point x="322" y="450"/>
      <point x="509" y="557"/>
    </contour>
  </outline>
</glyph>
<glyph name="breve" format="1">
  <advance width="717"/>
  <unicode hex="02D8"/>
  <outline>
    <contour>
      <point x="350" y="1255" type="move" name="_top"/>
    </contour>
    <contour>
      <point x="363" y="1300" type="curve" smooth="yes"/>
      <point x="615" y="1300"/>
      <point x="713" y="1488"/>
      <point x="713" y="1647" type="curve" smooth="yes"/>
      <point x="713" y="1658"/>
      <point x="713" y="1670"/>
      <point x="712" y="1681" type="curve"/>
      <point x="530" y="1681" type="line"/>
      <point x="527" y="1601"/>
      <point x="515" y="1517"/>
      <point x="368" y="1517" type="curve" smooth="yes"/>
      <point x="252" y="1517"/>
      <point x="239" y="1576"/>
      <point x="239" y="1636" type="curve" smooth="yes"/>
      <point x="239" y="1652"/>
      <point x="240" y="1667"/>
      <point x="240" y="1681" type="curve"/>
      <point x="56" y="1681" type="line"/>
      <point x="53" y="1659"/>
      <point x="51" y="1636"/>
      <point x="51" y="1613" type="curve" smooth="yes"/>
      <point x="51" y="1463"/>
      <point x="125" y="1300"/>
    </contour>
  </outline>
</glyph>
<glyph name="tilde" format="1">
  <advance width="816"/>
  <unicode hex="02DC"/>
  <outline>
    <contour>
      <point x="398" y="1255" type="move" name="_top"/>
    </contour>
    <contour>
      <point x="97" y="1387" type="line"/>
      <point x="135" y="1427"/>
      <point x="182" y="1469"/>
      <point x="244" y="1468" type="curve" smooth="yes"/>
      <point x="364" y="1465"/>
      <point x="368" y="1318"/>
      <point x="545" y="1318" type="curve" smooth="yes"/>
      <point x="649" y="1318"/>
      <point x="762" y="1412"/>
      <point x="796" y="1499" type="curve"/>
      <point x="708" y="1630" type="line"/>
      <point x="670" y="1582"/>
      <point x="630" y="1530"/>
      <point x="556" y="1530" type="curve" smooth="yes"/>
      <point x="457" y="1530"/>
      <point x="432" y="1680"/>
      <point x="277" y="1680" type="curve" smooth="yes"/>
      <point x="177" y="1680"/>
      <point x="61" y="1594"/>
      <point x="20" y="1511" type="curve"/>
    </contour>
  </outline>
</glyph>
<glyph name="hungarumlaut" format="1">
  <advance width="917"/>
  <unicode hex="02DD"/>
  <outline>
    <contour>
      <point x="340" y="1255" type="move" name="_top"/>
    </contour>
    <contour>
      <point x="539" y="1231" type="line"/>
      <point x="643" y="1279"/>
      <point x="839" y="1522"/>
      <point x="866" y="1628" type="curve"/>
      <point x="702" y="1742" type="line"/>
      <point x="436" y="1295" type="line"/>
    </contour>
    <contour>
      <point x="55" y="1231" type="line"/>
      <point x="156" y="1281"/>
      <point x="360" y="1519"/>
      <point x="386" y="1624" type="curve"/>
      <point x="214" y="1742" type="line"/>
      <point x="-47" y="1295" type="line"/>
    </contour>
  </outline>
</glyph>
<glyph name="pi" format="1">
  <advance width="1621"/>
  <unicode hex="03C0"/>
  <outline>
    <contour>
      <point x="122" y="746" type="curve"/>
      <point x="258" y="733" type="line"/>
      <point x="277" y="796"/>
      <point x="323" y="856"/>
      <point x="389" y="855" type="curve"/>
      <point x="1240" y="855" type="line" smooth="yes"/>
      <point x="1487" y="855"/>
      <point x="1554" y="1078"/>
      <point x="1554" y="1270" type="curve"/>
      <point x="1396" y="1270" type="line"/>
      <point x="1385" y="1189"/>
      <point x="1330" y="1155"/>
      <point x="1232" y="1155" type="curve" smooth="yes"/>
      <point x="428" y="1155" type="line" smooth="yes"/>
      <point x="318" y="1155"/>
      <point x="198" y="1105"/>
      <point x="148" y="984" type="curve" smooth="yes"/>
      <point x="122" y="921"/>
      <point x="122" y="827"/>
    </contour>
    <contour>
      <point x="844" y="208" type="curve" smooth="yes"/>
      <point x="844" y="65"/>
      <point x="938" y="-20"/>
      <point x="1096" y="-20" type="curve" smooth="yes"/>
      <point x="1361" y="-20"/>
      <point x="1479" y="180"/>
      <point x="1509" y="393" type="curve"/>
      <point x="1355" y="393" type="line"/>
      <point x="1316" y="255"/>
      <point x="1253" y="233"/>
      <point x="1206" y="234" type="curve" smooth="yes"/>
      <point x="1141" y="235"/>
      <point x="1128" y="289"/>
      <point x="1132" y="348" type="curve" smooth="yes"/>
      <point x="1142" y="504"/>
      <point x="1147" y="710"/>
      <point x="1201" y="1098" type="curve"/>
      <point x="979" y="1046" type="line"/>
      <point x="903" y="617"/>
      <point x="844" y="329"/>
    </contour>
    <contour>
      <point x="75" y="174" type="curve"/>
      <point x="282" y="-20" type="line"/>
      <point x="440" y="-20"/>
      <point x="625" y="89"/>
      <point x="683" y="450" type="curve"/>
      <point x="785" y="1068" type="line"/>
      <point x="570" y="1022" type="line"/>
      <point x="420" y="509" type="line" smooth="yes"/>
      <point x="358" y="296"/>
      <point x="211" y="184"/>
    </contour>
  </outline>
</glyph>
<glyph name="afii10053" format="1">
  <advance width="1300"/>
  <unicode hex="0404"/>
  <outline>
    <contour>
      <point x="813" y="0" type="move" name="btm"/>
    </contour>
    <contour>
      <point x="683" y="1700" type="move" name="top"/>
    </contour>
    <contour>
      <point x="677" y="1700" type="move" name="top"/>
    </contour>
    <contour>
      <point x="381" y="703" type="line"/>
      <point x="579" y="688"/>
      <point x="895" y="670"/>
      <point x="1013" y="663" type="curve"/>
      <point x="1047" y="882" type="line"/>
      <point x="397" y="853" type="line"/>
    </contour>
    <component base="C"/>
  </outline>
</glyph>
<glyph name="afii10020" format="1">
  <advance width="1116"/>
  <unicode hex="0413"/>
  <outline>
    <contour>
      <point x="536" y="-170" type="move" name="btm"/>
    </contour>
    <contour>
      <point x="329" y="1700" type="move" name="top"/>
    </contour>
    <contour>
      <point x="487" y="1700" type="move" name="top"/>
    </contour>
    <contour>
      <point x="-8" y="0" type="line"/>
      <point x="707" y="0" type="line"/>
      <point x="717" y="106" type="line"/>
      <point x="457" y="140" type="line"/>
      <point x="485" y="67" type="line"/>
      <point x="664" y="1402" type="line"/>
      <point x="902" y="1376" type="line"/>
      <point x="936" y="938" type="line"/>
      <point x="1117" y="938" type="line"/>
      <point x="1192" y="1522" type="line"/>
      <point x="176" y="1522" type="line"/>
      <point x="162" y="1412" type="line"/>
      <point x="350" y="1379" type="line"/>
      <point x="316" y="1453" type="line"/>
      <point x="132" y="70" type="line"/>
      <point x="198" y="148" type="line"/>
      <point x="3" y="106" type="line"/>
    </contour>
  </outline>
</glyph>
<glyph name="afii10021" format="1">
  <advance width="1445"/>
  <unicode hex="0414"/>
  <outline>
    <contour>
      <point x="460" y="-170" type="move" name="btm"/>
    </contour>
    <contour>
      <point x="460" y="1700" type="move" name="top"/>
    </contour>
    <contour>
      <point x="563" y="1700" type="move" name="top"/>
    </contour>
    <contour>
      <point x="466" y="1269" type="line"/>
      <point x="374" y="514"/>
      <point x="145" y="194"/>
      <point x="84" y="133" type="curve"/>
      <point x="134" y="94" type="line"/>
      <point x="297" y="136" type="line"/>
      <point x="368" y="223"/>
      <point x="543" y="617"/>
      <point x="618" y="1257" type="curve"/>
      <point x="635" y="1411" type="line"/>
      <point x="973" y="1411" type="line"/>
      <point x="797" y="80" type="line"/>
      <point x="1149" y="80" type="line"/>
      <point x="1341" y="1522" type="line"/>
      <point x="497" y="1522" type="line"/>
    </contour>
    <contour>
      <point x="-95" y="-380" type="curve"/>
      <point x="79" y="-380" type="line"/>
      <point x="96" y="-294"/>
      <point x="183" y="-41"/>
      <point x="205" y="0" type="curve"/>
      <point x="12" y="65" type="line"/>
      <point x="-58" y="136" type="line"/>
      <point x="-67" y="80"/>
      <point x="-95" y="-170"/>
    </contour>
    <contour>
      <point x="492" y="1384" type="line"/>
      <point x="519" y="1443" type="line"/>
      <point x="497" y="1522" type="line"/>
      <point x="286" y="1522" type="line"/>
      <point x="273" y="1412" type="line"/>
    </contour>
    <contour>
      <point x="1093" y="136" type="line"/>
      <point x="1088" y="12" type="line"/>
      <point x="1099" y="-71"/>
      <point x="1083" y="-286"/>
      <point x="1076" y="-380" type="curve"/>
      <point x="1250" y="-380" type="line"/>
      <point x="1282" y="-275"/>
      <point x="1350" y="-106"/>
      <point x="1388" y="136" type="curve"/>
    </contour>
    <contour>
      <point x="1473" y="1412" type="line"/>
      <point x="1485" y="1522" type="line"/>
      <point x="1341" y="1522" type="line"/>
      <point x="1297" y="1443" type="line"/>
      <point x="1310" y="1384" type="line"/>
    </contour>
    <contour>
      <point x="-38" y="0" type="line"/>
      <point x="1308" y="0" type="line"/>
      <point x="1020" y="136" type="line"/>
      <point x="-58" y="136" type="line"/>
    </contour>
  </outline>
</glyph>
<glyph name="afii10024" format="1">
  <advance width="2139"/>
  <unicode hex="0416"/>
  <outline>
    <contour>
      <point x="875" y="1700" type="move" name="top"/>
    </contour>
    <contour>
      <point x="345" y="0" type="line"/>
      <point x="452" y="0"/>
      <point x="659" y="684"/>
      <point x="844" y="684" type="curve" smooth="yes"/>
      <point x="914" y="684" type="line"/>
      <point x="948" y="740" type="line"/>
      <point x="928" y="830" type="line"/>
      <point x="672" y="830" type="line" smooth="yes"/>
      <point x="423" y="830"/>
      <point x="138" y="192"/>
      <point x="8" y="136" type="curve"/>
      <point x="-43" y="106" type="line"/>
      <point x="-59" y="0" type="line"/>
    </contour>
    <contour>
      <point x="805" y="830" type="line"/>
      <point x="473" y="1451" type="line"/>
      <point x="484" y="1381" type="line"/>
      <point x="655" y="1412" type="line"/>
      <point x="667" y="1522" type="line"/>
      <point x="155" y="1522" type="line"/>
      <point x="143" y="1412" type="line"/>
      <point x="353" y="1379" type="line"/>
      <point x="262" y="1451" type="line"/>
      <point x="687" y="769" type="line"/>
      <point x="769" y="713" type="line"/>
    </contour>
    <contour>
      <point x="2055" y="0" type="line"/>
      <point x="2067" y="106" type="line"/>
      <point x="1992" y="136" type="line"/>
      <point x="1882" y="175"/>
      <point x="1695" y="830"/>
      <point x="1501" y="830" type="curve" smooth="yes"/>
      <point x="1148" y="830" type="line"/>
      <point x="1102" y="750" type="line"/>
      <point x="1134" y="694" type="line"/>
      <point x="1284" y="694" type="line" smooth="yes"/>
      <point x="1437" y="694"/>
      <point x="1559" y="0"/>
      <point x="1687" y="0" type="curve" smooth="yes"/>
    </contour>
    <contour>
      <point x="1518" y="807" type="line"/>
      <point x="2079" y="1451" type="line"/>
      <point x="1959" y="1371" type="line"/>
      <point x="2155" y="1412" type="line"/>
      <point x="2169" y="1522" type="line"/>
      <point x="1706" y="1522" type="line"/>
      <point x="1692" y="1412" type="line"/>
      <point x="1885" y="1373" type="line"/>
      <point x="1867" y="1451" type="line"/>
      <point x="1380" y="830" type="line"/>
      <point x="1449" y="723" type="line"/>
    </contour>
    <contour>
      <point x="660" y="0" type="line"/>
      <point x="1332" y="0" type="line"/>
      <point x="1340" y="106" type="line"/>
      <point x="1172" y="136" type="line"/>
      <point x="1338" y="1386" type="line"/>
      <point x="1506" y="1412" type="line"/>
      <point x="1518" y="1522" type="line"/>
      <point x="843" y="1522" type="line"/>
      <point x="829" y="1412" type="line"/>
      <point x="993" y="1386" type="line"/>
      <point x="827" y="136" type="line"/>
      <point x="671" y="106" type="line"/>
    </contour>
  </outline>
</glyph>
<glyph name="afii10026" format="1">
  <advance width="1677"/>
  <unicode hex="0418"/>
  <outline>
    <contour>
      <point x="660" y="-170" type="move" name="btm"/>
    </contour>
    <contour>
      <point x="741" y="1700" type="move" name="top"/>
    </contour>
    <contour>
      <point x="747" y="1700" type="move" name="top"/>
    </contour>
    <contour>
      <point x="376" y="224" type="line"/>
      <point x="398" y="145" type="line"/>
      <point x="431" y="154" type="line"/>
      <point x="1100" y="929" type="line"/>
      <point x="1348" y="1296" type="line"/>
      <point x="1324" y="1319" type="line"/>
      <point x="1276" y="1334" type="line"/>
      <point x="614" y="573" type="line"/>
    </contour>
    <contour>
      <point x="-8" y="0" type="line"/>
      <point x="659" y="0" type="line"/>
      <point x="667" y="106" type="line"/>
      <point x="493" y="136" type="line"/>
      <point x="659" y="1386" type="line"/>
      <point x="839" y="1412" type="line"/>
      <point x="851" y="1522" type="line"/>
      <point x="176" y="1522" type="line"/>
      <point x="162" y="1412" type="line"/>
      <point x="307" y="1386" type="line"/>
      <point x="141" y="136" type="line"/>
      <point x="3" y="106" type="line"/>
    </contour>
    <contour>
      <point x="917" y="0" type="line"/>
      <point x="1584" y="0" type="line"/>
      <point x="1592" y="106" type="line"/>
      <point x="1418" y="136" type="line"/>
      <point x="1584" y="1386" type="line"/>
      <point x="1764" y="1412" type="line"/>
      <point x="1776" y="1522" type="line"/>
      <point x="1101" y="1522" type="line"/>
      <point x="1087" y="1412" type="line"/>
      <point x="1232" y="1386" type="line"/>
      <point x="1066" y="136" type="line"/>
      <point x="928" y="106" type="line"/>
    </contour>
  </outline>
</glyph>
<glyph name="afii10028" format="1">
  <advance width="1451"/>
  <unicode hex="041A"/>
  <outline>
    <contour>
      <point x="651" y="-170" type="move" name="btm"/>
    </contour>
    <contour>
      <point x="651" y="1700" type="move" name="top"/>
    </contour>
    <contour>
      <point x="628" y="1700" type="move" name="top"/>
    </contour>
    <contour>
      <point x="835" y="807" type="line"/>
      <point x="1391" y="1451" type="line"/>
      <point x="1271" y="1371" type="line"/>
      <point x="1467" y="1412" type="line"/>
      <point x="1481" y="1522" type="line"/>
      <point x="1018" y="1522" type="line"/>
      <point x="1004" y="1412" type="line"/>
      <point x="1197" y="1373" type="line"/>
      <point x="1179" y="1451" type="line"/>
      <point x="692" y="830" type="line"/>
      <point x="761" y="723" type="line"/>
    </contour>
    <contour>
      <point x="-13" y="0" type="line"/>
      <point x="654" y="0" type="line"/>
      <point x="662" y="106" type="line"/>
      <point x="488" y="136" type="line"/>
      <point x="654" y="1386" type="line"/>
      <point x="834" y="1412" type="line"/>
      <point x="846" y="1522" type="line"/>
      <point x="171" y="1522" type="line"/>
      <point x="157" y="1412" type="line"/>
      <point x="302" y="1386" type="line"/>
      <point x="136" y="136" type="line"/>
      <point x="-2" y="106" type="line"/>
    </contour>
    <contour>
      <point x="1368" y="0" type="line"/>
      <point x="1380" y="106" type="line"/>
      <point x="1305" y="136" type="line"/>
      <point x="1195" y="175"/>
      <point x="1008" y="830"/>
      <point x="814" y="830" type="curve" smooth="yes"/>
      <point x="461" y="830" type="line"/>
      <point x="415" y="750" type="line"/>
      <point x="447" y="694" type="line"/>
      <point x="597" y="694" type="line" smooth="yes"/>
      <point x="750" y="694"/>
      <point x="872" y="0"/>
      <point x="1000" y="0" type="curve" smooth="yes"/>
    </contour>
  </outline>
</glyph>
<glyph name="afii10033" format="1">
  <advance width="1578"/>
  <unicode hex="041F"/>
  <outline>
    <contour>
      <point x="714" y="-170" type="move" name="btm"/>
    </contour>
    <contour>
      <point x="714" y="1700" type="move" name="top"/>
    </contour>
    <contour>
      <point x="693" y="1700" type="move" name="top"/>
    </contour>
    <contour>
      <point x="-8" y="0" type="line"/>
      <point x="659" y="0" type="line"/>
      <point x="667" y="106" type="line"/>
      <point x="428" y="147" type="line"/>
      <point x="487" y="90" type="line"/>
      <point x="660" y="1398" type="line"/>
      <point x="1136" y="1398" type="line"/>
      <point x="961" y="90" type="line"/>
      <point x="1014" y="143" type="line"/>
      <point x="826" y="106" type="line"/>
      <point x="812" y="0" type="line"/>
      <point x="1465" y="0" type="line"/>
      <point x="1477" y="106" type="line"/>
      <point x="1238" y="152" type="line"/>
      <point x="1314" y="90" type="line"/>
      <point x="1493" y="1449" type="line"/>
      <point x="1406" y="1373" type="line"/>
      <point x="1629" y="1412" type="line"/>
      <point x="1638" y="1522" type="line"/>
      <point x="163" y="1522" type="line"/>
      <point x="149" y="1412" type="line"/>
      <point x="396" y="1370" type="line"/>
      <point x="315" y="1445" type="line"/>
      <point x="136" y="90" type="line"/>
      <point x="171" y="142" type="line"/>
      <point x="3" y="106" type="line"/>
    </contour>
  </outline>
</glyph>
<glyph name="afii10038" format="1">
  <advance width="1708"/>
  <unicode hex="0424"/>
  <outline>
    <contour>
      <point x="785" y="-170" type="move" name="btm"/>
    </contour>
    <contour>
      <point x="799" y="1700" type="move" name="top"/>
    </contour>
    <contour>
      <point x="779" y="1700" type="move" name="top"/>
    </contour>
    <contour>
      <point x="449" y="-75" type="line"/>
      <point x="1121" y="-75" type="line"/>
      <point x="1129" y="31" type="line"/>
      <point x="961" y="61" type="line"/>
      <point x="1143" y="1466" type="line"/>
      <point x="1311" y="1492" type="line"/>
      <point x="1323" y="1602" type="line"/>
      <point x="648" y="1602" type="line"/>
      <point x="634" y="1492" type="line"/>
      <point x="798" y="1466" type="line"/>
      <point x="616" y="61" type="line"/>
      <point x="460" y="31" type="line"/>
    </contour>
    <contour>
      <point x="814" y="274" type="curve" smooth="yes"/>
      <point x="464" y="274"/>
      <point x="386" y="487"/>
      <point x="386" y="663" type="curve" smooth="yes"/>
      <point x="386" y="953"/>
      <point x="480" y="1281"/>
      <point x="943" y="1281" type="curve"/>
      <point x="1293" y="1281"/>
      <point x="1371" y="1068"/>
      <point x="1371" y="892" type="curve" smooth="yes"/>
      <point x="1371" y="602"/>
      <point x="1277" y="274"/>
    </contour>
    <contour>
      <point x="790" y="179" type="curve"/>
      <point x="1464" y="179"/>
      <point x="1707" y="481"/>
      <point x="1707" y="884" type="curve" smooth="yes"/>
      <point x="1707" y="1155"/>
      <point x="1569" y="1371"/>
      <point x="966" y="1371" type="curve" smooth="yes"/>
      <point x="292" y="1371"/>
      <point x="49" y="1069"/>
      <point x="49" y="666" type="curve" smooth="yes"/>
      <point x="49" y="385"/>
      <point x="187" y="179"/>
    </contour>
  </outline>
</glyph>
<glyph name="afii10040" format="1">
  <advance width="1661"/>
  <unicode hex="0426"/>
  <outline>
    <contour>
      <point x="693" y="-170" type="move" name="btm"/>
    </contour>
    <contour>
      <point x="693" y="1700" type="move" name="top"/>
    </contour>
    <contour>
      <point x="701" y="1700" type="move" name="top"/>
    </contour>
    <contour>
      <point x="-21" y="0" type="line"/>
      <point x="1469" y="0" type="line"/>
      <point x="1488" y="131" type="line"/>
      <point x="1176" y="136" type="line"/>
      <point x="1311" y="78" type="line"/>
      <point x="1489" y="1432" type="line"/>
      <point x="1374" y="1370" type="line"/>
      <point x="1655" y="1412" type="line"/>
      <point x="1667" y="1522" type="line"/>
      <point x="995" y="1522" type="line"/>
      <point x="984" y="1412" type="line"/>
      <point x="1191" y="1376" type="line"/>
      <point x="1139" y="1449" type="line"/>
      <point x="960" y="78" type="line"/>
      <point x="1120" y="119" type="line"/>
      <point x="306" y="119" type="line"/>
      <point x="495" y="91" type="line"/>
      <point x="666" y="1448" type="line"/>
      <point x="592" y="1376" type="line"/>
      <point x="832" y="1412" type="line"/>
      <point x="843" y="1522" type="line"/>
      <point x="172" y="1522" type="line"/>
      <point x="160" y="1412" type="line"/>
      <point x="364" y="1376" type="line"/>
      <point x="314" y="1447" type="line"/>
      <point x="137" y="97" type="line"/>
      <point x="168" y="142" type="line"/>
      <point x="-8" y="106" type="line"/>
    </contour>
    <contour>
      <point x="1216" y="-380" type="curve"/>
      <point x="1390" y="-380" type="line"/>
      <point x="1422" y="-275"/>
      <point x="1490" y="-106"/>
      <point x="1528" y="136" type="curve"/>
      <point x="1316" y="136" type="line"/>
      <point x="1228" y="12" type="line"/>
      <point x="1239" y="-71"/>
      <point x="1223" y="-286"/>
    </contour>
  </outline>
</glyph>
<glyph name="afii10041" format="1">
  <advance width="1457"/>
  <unicode hex="0427"/>
  <outline>
    <contour>
      <point x="622" y="-170" type="move" name="btm"/>
    </contour>
    <contour>
      <point x="594" y="1700" type="move" name="top"/>
    </contour>
    <contour>
      <point x="559" y="1386" type="line"/>
      <point x="729" y="1412" type="line"/>
      <point x="741" y="1522" type="line"/>
      <point x="66" y="1522" type="line"/>
      <point x="52" y="1412" type="line"/>
      <point x="197" y="1386" type="line"/>
      <point x="152" y="1036" type="line" smooth="yes"/>
      <point x="104" y="638"/>
      <point x="278" y="580"/>
      <point x="573" y="580" type="curve" smooth="yes"/>
      <point x="690" y="580"/>
      <point x="839" y="613"/>
      <point x="931" y="669" type="curve"/>
      <point x="1041" y="753" type="line"/>
      <point x="945" y="786" type="line"/>
      <point x="896" y="735"/>
      <point x="762" y="721"/>
      <point x="664" y="721" type="curve" smooth="yes"/>
      <point x="494" y="721"/>
      <point x="494" y="825"/>
      <point x="528" y="1184" type="curve" smooth="yes"/>
    </contour>
    <contour>
      <point x="641" y="0" type="line"/>
      <point x="1344" y="0" type="line"/>
      <point x="1356" y="106" type="line"/>
      <point x="1199" y="136" type="line"/>
      <point x="1364" y="1386" type="line"/>
      <point x="1518" y="1412" type="line"/>
      <point x="1530" y="1522" type="line"/>
      <point x="847" y="1522" type="line"/>
      <point x="835" y="1412" type="line"/>
      <point x="1012" y="1386" type="line"/>
      <point x="846" y="136" type="line"/>
      <point x="655" y="106" type="line"/>
    </contour>
  </outline>
</glyph>
<glyph name="afii10043" format="1">
  <advance width="2315"/>
  <unicode hex="0429"/>
  <outline>
    <contour>
      <point x="682" y="-170" type="move" name="btm"/>
    </contour>
    <contour>
      <point x="682" y="1700" type="move" name="top"/>
    </contour>
    <contour>
      <point x="957" y="1700" type="move" name="top"/>
    </contour>
    <contour>
      <point x="-8" y="0" type="line"/>
      <point x="2225" y="0" type="line"/>
      <point x="2210" y="126" type="line"/>
      <point x="1971" y="136" type="line"/>
      <point x="2043" y="92" type="line"/>
      <point x="2220" y="1432" type="line"/>
      <point x="2172" y="1379" type="line"/>
      <point x="2368" y="1412" type="line"/>
      <point x="2379" y="1522" type="line"/>
      <point x="1697" y="1522" type="line"/>
      <point x="1685" y="1412" type="line"/>
      <point x="1955" y="1372" type="line"/>
      <point x="1870" y="1449" type="line"/>
      <point x="1688" y="77" type="line"/>
      <point x="1895" y="119" type="line"/>
      <point x="1215" y="119" type="line"/>
      <point x="1277" y="81" type="line"/>
      <point x="1456" y="1432" type="line"/>
      <point x="1415" y="1380" type="line"/>
      <point x="1603" y="1412" type="line"/>
      <point x="1614" y="1522" type="line"/>
      <point x="932" y="1522" type="line"/>
      <point x="920" y="1412" type="line"/>
      <point x="1114" y="1383" type="line"/>
      <point x="1105" y="1449" type="line"/>
      <point x="924" y="84" type="line"/>
      <point x="943" y="119" type="line"/>
      <point x="305" y="119" type="line"/>
      <point x="487" y="94" type="line"/>
      <point x="668" y="1453" type="line"/>
      <point x="629" y="1382" type="line"/>
      <point x="839" y="1412" type="line"/>
      <point x="851" y="1522" type="line"/>
      <point x="176" y="1522" type="line"/>
      <point x="162" y="1412" type="line"/>
      <point x="330" y="1382" type="line"/>
      <point x="315" y="1445" type="line"/>
      <point x="135" y="91" type="line"/>
      <point x="247" y="160" type="line"/>
      <point x="3" y="106" type="line"/>
    </contour>
    <contour>
      <point x="1971" y="-380" type="curve"/>
      <point x="2145" y="-380" type="line"/>
      <point x="2177" y="-275"/>
      <point x="2245" y="-106"/>
      <point x="2283" y="136" type="curve"/>
      <point x="2031" y="136" type="line"/>
      <point x="1983" y="12" type="line"/>
      <point x="1994" y="-71"/>
      <point x="1978" y="-286"/>
    </contour>
  </outline>
</glyph>
<glyph name="afii10044" format="1">
  <advance width="1700"/>
  <unicode hex="042A"/>
  <outline>
    <contour>
      <point x="593" y="-170" type="move" name="btm"/>
    </contour>
    <contour>
      <point x="593" y="1700" type="move" name="top"/>
    </contour>
    <contour>
      <point x="679" y="1700" type="move" name="top"/>
    </contour>
    <contour>
      <point x="734" y="0" type="line"/>
      <point x="837" y="59" type="line"/>
      <point x="1020" y="1453" type="line"/>
      <point x="996" y="1383" type="line"/>
      <point x="1186" y="1421" type="line"/>
      <point x="1196" y="1522" type="line"/>
      <point x="170" y="1522" type="line"/>
      <point x="71" y="937" type="line"/>
      <point x="259" y="937" type="line"/>
      <point x="427" y="1386" type="line"/>
      <point x="663" y="1402" type="line"/>
      <point x="486" y="67" type="line"/>
      <point x="574" y="151" type="line"/>
      <point x="345" y="106" type="line"/>
      <point x="332" y="0" type="line"/>
    </contour>
    <contour>
      <point x="611" y="0" type="line"/>
      <point x="693" y="0"/>
      <point x="904" y="-18"/>
      <point x="951" y="-18" type="curve" smooth="yes"/>
      <point x="1363" y="-18"/>
      <point x="1633" y="170"/>
      <point x="1633" y="555" type="curve" smooth="yes"/>
      <point x="1633" y="802"/>
      <point x="1458" y="931"/>
      <point x="1114" y="931" type="curve" smooth="yes"/>
      <point x="1034" y="931"/>
      <point x="987" y="918"/>
      <point x="945" y="907" type="curve"/>
      <point x="824" y="783" type="line"/>
      <point x="930" y="772" type="line"/>
      <point x="956" y="781"/>
      <point x="1010" y="785"/>
      <point x="1049" y="785" type="curve" smooth="yes"/>
      <point x="1180" y="785"/>
      <point x="1267" y="675"/>
      <point x="1267" y="526" type="curve" smooth="yes"/>
      <point x="1267" y="281"/>
      <point x="1156" y="106"/>
      <point x="951" y="106" type="curve" smooth="yes"/>
      <point x="834" y="106"/>
      <point x="799" y="115"/>
      <point x="757" y="126" type="curve"/>
    </contour>
  </outline>
</glyph>
<glyph name="afii10045" format="1">
  <advance width="2006"/>
  <unicode hex="042B"/>
  <outline>
    <contour>
      <point x="1058" y="1700" type="move" name="top"/>
    </contour>
    <component base="I" xOffset="1251"/>
    <component base="afii10046"/>
  </outline>
</glyph>
<glyph name="afii10046" format="1">
  <advance width="1347"/>
  <unicode hex="042C"/>
  <outline>
    <contour>
      <point x="659" y="1700" type="move" name="top"/>
    </contour>
    <contour>
      <point x="133" y="67" type="line"/>
      <point x="221" y="151" type="line"/>
      <point x="-8" y="106" type="line"/>
      <point x="-21" y="0" type="line"/>
      <point x="381" y="0" type="line"/>
      <point x="484" y="59" type="line"/>
      <point x="667" y="1453" type="line"/>
      <point x="643" y="1383" type="line"/>
      <point x="832" y="1421" type="line"/>
      <point x="843" y="1522" type="line"/>
      <point x="172" y="1522" type="line"/>
      <point x="160" y="1412" type="line"/>
      <point x="348" y="1379" type="line"/>
      <point x="315" y="1445" type="line"/>
    </contour>
    <contour>
      <point x="258" y="0" type="line"/>
      <point x="340" y="0"/>
      <point x="551" y="-18"/>
      <point x="598" y="-18" type="curve" smooth="yes"/>
      <point x="1010" y="-18"/>
      <point x="1280" y="170"/>
      <point x="1280" y="555" type="curve" smooth="yes"/>
      <point x="1280" y="802"/>
      <point x="1105" y="931"/>
      <point x="761" y="931" type="curve" smooth="yes"/>
      <point x="681" y="931"/>
      <point x="634" y="918"/>
      <point x="592" y="907" type="curve"/>
      <point x="471" y="783" type="line"/>
      <point x="577" y="772" type="line"/>
      <point x="603" y="781"/>
      <point x="657" y="785"/>
      <point x="696" y="785" type="curve" smooth="yes"/>
      <point x="827" y="785"/>
      <point x="914" y="675"/>
      <point x="914" y="526" type="curve" smooth="yes"/>
      <point x="914" y="281"/>
      <point x="803" y="106"/>
      <point x="598" y="106" type="curve" smooth="yes"/>
      <point x="481" y="106"/>
      <point x="446" y="115"/>
      <point x="404" y="126" type="curve"/>
    </contour>
  </outline>
</glyph>
<glyph name="afii10049" format="1">
  <advance width="1488"/>
  <unicode hex="042F"/>
  <outline>
    <contour>
      <point x="750" y="-170" type="move" name="btm"/>
    </contour>
    <contour>
      <point x="750" y="1700" type="move" name="top"/>
    </contour>
    <contour>
      <point x="755" y="1700" type="move" name="top"/>
    </contour>
    <contour>
      <point x="1385" y="106" type="line"/>
      <point x="1194" y="143" type="line"/>
      <point x="1220" y="61" type="line"/>
      <point x="1400" y="1432" type="line"/>
      <point x="1345" y="1379" type="line"/>
      <point x="1556" y="1412" type="line"/>
      <point x="1569" y="1522" type="line"/>
      <point x="1224" y="1522" type="line" smooth="yes"/>
      <point x="1033" y="1522"/>
      <point x="1035" y="1538"/>
      <point x="845" y="1538" type="curve" smooth="yes"/>
      <point x="409" y="1538"/>
      <point x="186" y="1338"/>
      <point x="186" y="1036" type="curve" smooth="yes"/>
      <point x="186" y="846"/>
      <point x="321" y="672"/>
      <point x="634" y="671" type="curve"/>
      <point x="822" y="672" type="line" smooth="yes"/>
      <point x="859" y="673"/>
      <point x="904" y="672"/>
      <point x="946" y="675" type="curve"/>
      <point x="868" y="78" type="line"/>
      <point x="912" y="143" type="line"/>
      <point x="719" y="106" type="line"/>
      <point x="710" y="0" type="line"/>
      <point x="1375" y="0" type="line"/>
    </contour>
    <contour>
      <point x="962" y="792" type="line"/>
      <point x="923" y="787"/>
      <point x="866" y="786"/>
      <point x="819" y="786" type="curve" smooth="yes"/>
      <point x="682" y="786"/>
      <point x="589" y="868"/>
      <point x="589" y="1048" type="curve" smooth="yes"/>
      <point x="589" y="1258"/>
      <point x="677" y="1412"/>
      <point x="871" y="1412" type="curve" smooth="yes"/>
      <point x="986" y="1412"/>
      <point x="1008" y="1399"/>
      <point x="1041" y="1397" type="curve"/>
    </contour>
    <contour>
      <point x="-102" y="0" type="line"/>
      <point x="331" y="0"/>
      <point x="340" y="0"/>
      <point x="344" y="0" type="curve" smooth="yes"/>
      <point x="453" y="0"/>
      <point x="638" y="644"/>
      <point x="797" y="693" type="curve"/>
      <point x="609" y="733" type="line"/>
      <point x="462" y="702" type="line"/>
      <point x="295" y="622"/>
      <point x="92" y="142"/>
      <point x="-17" y="116" type="curve"/>
      <point x="-91" y="86" type="line"/>
    </contour>
  </outline>
</glyph>
<glyph name="afii10077" format="1">
  <advance width="1196"/>
  <unicode hex="043B"/>
  <outline>
    <contour>
      <point x="463" y="-170" type="move" name="btm"/>
    </contour>
    <contour>
      <point x="463" y="1700" type="move" name="top"/>
    </contour>
    <contour>
      <point x="458" y="1700" type="move" name="top"/>
    </contour>
    <contour>
      <point x="838" y="-20" type="curve" smooth="yes"/>
      <point x="970" y="-20"/>
      <point x="1096" y="63"/>
      <point x="1138" y="124" type="curve"/>
      <point x="1110" y="197" type="line"/>
      <point x="1064" y="163"/>
      <point x="1038" y="151"/>
      <point x="1018" y="151" type="curve" smooth="yes"/>
      <point x="999" y="151"/>
      <point x="970" y="161"/>
      <point x="978" y="228" type="curve" smooth="yes"/>
      <point x="1106" y="1155" type="line"/>
      <point x="364" y="1155" type="line"/>
      <point x="345" y="1007" type="line" smooth="yes"/>
      <point x="310" y="726"/>
      <point x="252" y="426"/>
      <point x="198" y="310" type="curve" smooth="yes"/>
      <point x="182" y="277"/>
      <point x="167" y="259"/>
      <point x="153" y="259" type="curve" smooth="yes"/>
      <point x="131" y="259"/>
      <point x="7" y="285"/>
      <point x="-3" y="293" type="curve"/>
      <point x="-70" y="8" type="line"/>
      <point x="-66" y="-1"/>
      <point x="9" y="-16"/>
      <point x="32" y="-16" type="curve" smooth="yes"/>
      <point x="166" y="-16"/>
      <point x="219" y="47"/>
      <point x="272" y="128" type="curve" smooth="yes"/>
      <point x="345" y="240"/>
      <point x="473" y="1017"/>
      <point x="473" y="1017" type="curve"/>
      <point x="755" y="1017" type="line"/>
      <point x="645" y="165" type="line" smooth="yes"/>
      <point x="629" y="42"/>
      <point x="706" y="-20"/>
    </contour>
    <contour>
      <point x="354" y="958" type="line"/>
      <point x="415" y="1056" type="line"/>
      <point x="364" y="1155" type="line"/>
      <point x="114" y="1155" type="line"/>
      <point x="95" y="1017" type="line"/>
    </contour>
  </outline>
</glyph>
<glyph name="afii10091" format="1">
  <advance width="1912"/>
  <unicode hex="0449"/>
  <outline>
    <contour>
      <point x="813" y="-170" type="move" name="btm"/>
    </contour>
    <contour>
      <point x="813" y="1700" type="move" name="top"/>
    </contour>
    <contour>
      <point x="997" y="1700" type="move" name="top"/>
    </contour>
    <contour>
      <point x="1622" y="12" type="line"/>
      <point x="1564" y="6"/>
      <point x="1384" y="-41"/>
      <point x="1384" y="-166" type="curve" smooth="yes"/>
      <point x="1384" y="-241"/>
      <point x="1409" y="-261"/>
      <point x="1409" y="-314" type="curve" smooth="yes"/>
      <point x="1409" y="-375"/>
      <point x="1352" y="-443"/>
      <point x="1302" y="-463" type="curve"/>
      <point x="1375" y="-545" type="line"/>
      <point x="1493" y="-516"/>
      <point x="1657" y="-383"/>
      <point x="1657" y="-277" type="curve" smooth="yes"/>
      <point x="1657" y="-190"/>
      <point x="1613" y="-147"/>
      <point x="1613" y="-99" type="curve" smooth="yes"/>
      <point x="1613" y="-45"/>
      <point x="1676" y="-8"/>
      <point x="1717" y="12" type="curve"/>
    </contour>
    <component base="afii10090"/>
  </outline>
</glyph>
<glyph name="afii10092" format="1">
  <advance width="1320"/>
  <unicode hex="044A"/>
  <outline>
    <contour>
      <point x="775" y="-170" type="move" name="btm"/>
    </contour>
    <contour>
      <point x="775" y="1700" type="move" name="top"/>
    </contour>
    <contour>
      <point x="791" y="1700" type="move" name="top"/>
    </contour>
    <contour>
      <point x="668" y="-23" type="curve" smooth="yes"/>
      <point x="983" y="-23"/>
      <point x="1242" y="202"/>
      <point x="1242" y="487" type="curve" smooth="yes"/>
      <point x="1242" y="760"/>
      <point x="1095" y="808"/>
      <point x="941" y="808" type="curve" smooth="yes"/>
      <point x="770" y="808"/>
      <point x="599" y="650"/>
      <point x="578" y="607" type="curve"/>
      <point x="497" y="427" type="line"/>
      <point x="579" y="570"/>
      <point x="702" y="620"/>
      <point x="762" y="620" type="curve" smooth="yes"/>
      <point x="874" y="620"/>
      <point x="925" y="530"/>
      <point x="925" y="435" type="curve" smooth="yes"/>
      <point x="925" y="265"/>
      <point x="858" y="106"/>
      <point x="692" y="106" type="curve" smooth="yes"/>
      <point x="638" y="106"/>
      <point x="585" y="198"/>
      <point x="585" y="339" type="curve" smooth="yes"/>
      <point x="585" y="612"/>
      <point x="729" y="810"/>
      <point x="948" y="1101" type="curve" smooth="yes"/>
      <point x="959" y="1124"/>
      <point x="907" y="1173"/>
      <point x="889" y="1163" type="curve" smooth="yes"/>
      <point x="467" y="932"/>
      <point x="263" y="610"/>
      <point x="263" y="339" type="curve" smooth="yes"/>
      <point x="263" y="84"/>
      <point x="454" y="-23"/>
    </contour>
    <contour>
      <point x="18" y="733" type="curve"/>
      <point x="106" y="733" type="line"/>
      <point x="109" y="769"/>
      <point x="122" y="801"/>
      <point x="143" y="827" type="curve" smooth="yes"/>
      <point x="173" y="862"/>
      <point x="219" y="884"/>
      <point x="281" y="884" type="curve" smooth="yes"/>
      <point x="757" y="884" type="line"/>
      <point x="876" y="1080" type="line"/>
      <point x="889" y="1163" type="line"/>
      <point x="846" y="1142"/>
      <point x="786" y="1128"/>
      <point x="733" y="1128" type="curve" smooth="yes"/>
      <point x="607" y="1128"/>
      <point x="344" y="1163"/>
      <point x="187" y="1163" type="curve" smooth="yes"/>
      <point x="136" y="1163"/>
      <point x="101" y="1148"/>
      <point x="85" y="1141" type="curve" smooth="yes"/>
      <point x="-4" y="1103"/>
      <point x="2" y="826"/>
    </contour>
  </outline>
</glyph>
<glyph name="afii10093" format="1">
  <advance width="1741"/>
  <unicode hex="044B"/>
  <outline>
    <contour>
      <point x="806" y="-170" type="move" name="btm"/>
    </contour>
    <contour>
      <point x="806" y="1700" type="move" name="top"/>
    </contour>
    <contour>
      <point x="814" y="1700" type="move" name="top"/>
    </contour>
    <contour>
      <point x="1403" y="-20" type="curve" smooth="yes"/>
      <point x="1535" y="-20"/>
      <point x="1646" y="64"/>
      <point x="1683" y="124" type="curve"/>
      <point x="1655" y="197" type="line"/>
      <point x="1609" y="160"/>
      <point x="1580" y="151"/>
      <point x="1563" y="151" type="curve" smooth="yes"/>
      <point x="1532" y="151"/>
      <point x="1516" y="179"/>
      <point x="1523" y="227" type="curve" smooth="yes"/>
      <point x="1651" y="1155" type="line"/>
      <point x="1319" y="1155" type="line"/>
      <point x="1191" y="174" type="line" smooth="yes"/>
      <point x="1178" y="78"/>
      <point x="1245" y="-20"/>
    </contour>
    <component base="afii10094"/>
  </outline>
</glyph>
<glyph name="afii10094" format="1">
  <advance width="1167"/>
  <unicode hex="044C"/>
  <outline>
    <contour>
      <point x="629" y="-170" type="move" name="btm"/>
    </contour>
    <contour>
      <point x="629" y="1700" type="move" name="top"/>
    </contour>
    <contour>
      <point x="558" y="1700" type="move" name="top"/>
    </contour>
    <contour>
      <point x="144" y="487" type="line"/>
      <point x="70" y="123"/>
      <point x="279" y="-23"/>
      <point x="530" y="-23" type="curve" smooth="yes"/>
      <point x="845" y="-23"/>
      <point x="1084" y="182"/>
      <point x="1084" y="467" type="curve" smooth="yes"/>
      <point x="1084" y="740"/>
      <point x="937" y="808"/>
      <point x="783" y="808" type="curve" smooth="yes"/>
      <point x="572" y="808"/>
      <point x="431" y="630"/>
      <point x="410" y="587" type="curve"/>
      <point x="268" y="484" type="line"/>
      <point x="339" y="427" type="line" smooth="yes"/>
      <point x="390" y="565"/>
      <point x="544" y="620"/>
      <point x="604" y="620" type="curve" smooth="yes"/>
      <point x="716" y="620"/>
      <point x="757" y="530"/>
      <point x="757" y="435" type="curve" smooth="yes"/>
      <point x="757" y="285"/>
      <point x="720" y="106"/>
      <point x="554" y="106" type="curve" smooth="yes"/>
      <point x="487" y="106"/>
      <point x="414" y="159"/>
      <point x="455" y="384" type="curve" smooth="yes"/>
      <point x="544" y="1139" type="line"/>
      <point x="492" y="1163" type="line"/>
      <point x="118" y="1111" type="line"/>
      <point x="102" y="1022" type="line"/>
      <point x="218" y="958" type="line"/>
      <point x="212" y="982" type="line"/>
    </contour>
  </outline>
</glyph>
<glyph name="afii10096" format="1">
  <advance width="1768"/>
  <unicode hex="044E"/>
  <outline>
    <contour>
      <point x="884" y="1700" type="move" name="top"/>
    </contour>
    <contour>
      <point x="323" y="508" type="line"/>
      <point x="728" y="508" type="line"/>
      <point x="743" y="647" type="line"/>
      <point x="338" y="647" type="line"/>
    </contour>
    <contour>
      <point x="76" y="0" type="line"/>
      <point x="400" y="0" type="line"/>
      <point x="555" y="1138" type="line"/>
      <point x="490" y="1163" type="line"/>
      <point x="116" y="1111" type="line"/>
      <point x="100" y="1022" type="line"/>
      <point x="215" y="958" type="line"/>
      <point x="210" y="985" type="line"/>
    </contour>
    <component base="o" xOffset="571"/>
  </outline>
</glyph>
<glyph name="afii10097" format="1">
  <advance width="1196"/>
  <unicode hex="044F"/>
  <outline>
    <contour>
      <point x="590" y="-170" type="move" name="btm"/>
    </contour>
    <contour>
      <point x="590" y="1700" type="move" name="top"/>
    </contour>
    <contour>
      <point x="617" y="1700" type="move" name="top"/>
    </contour>
    <contour>
      <point x="838" y="-20" type="curve" smooth="yes"/>
      <point x="999" y="-20"/>
      <point x="1121" y="93"/>
      <point x="1138" y="124" type="curve"/>
      <point x="1110" y="197" type="line"/>
      <point x="1075" y="170"/>
      <point x="1039" y="151"/>
      <point x="1018" y="151" type="curve" smooth="yes"/>
      <point x="1001" y="151"/>
      <point x="977" y="170"/>
      <point x="977" y="199" type="curve" smooth="yes"/>
      <point x="977" y="208"/>
      <point x="1106" y="1155"/>
      <point x="1106" y="1155" type="curve"/>
      <point x="939" y="1155" type="line" smooth="yes"/>
      <point x="872" y="1155"/>
      <point x="738" y="1163"/>
      <point x="641" y="1163" type="curve" smooth="yes"/>
      <point x="279" y="1163"/>
      <point x="90" y="1041"/>
      <point x="90" y="783" type="curve" smooth="yes"/>
      <point x="90" y="575"/>
      <point x="233" y="479"/>
      <point x="528" y="477" type="curve" smooth="yes"/>
      <point x="691" y="476" type="line"/>
      <point x="691" y="476"/>
      <point x="649" y="140"/>
      <point x="649" y="129" type="curve" smooth="yes"/>
      <point x="649" y="55"/>
      <point x="699" y="-20"/>
    </contour>
    <contour>
      <point x="-27" y="0" type="line"/>
      <point x="212" y="0"/>
      <point x="340" y="0"/>
      <point x="342" y="0" type="curve" smooth="yes"/>
      <point x="459" y="0"/>
      <point x="470" y="447"/>
      <point x="625" y="494" type="curve"/>
      <point x="573" y="560" type="line"/>
      <point x="411" y="502" type="line"/>
      <point x="134" y="463"/>
      <point x="99" y="127"/>
      <point x="44" y="127" type="curve"/>
      <point x="-15" y="100" type="line"/>
    </contour>
    <contour>
      <point x="709" y="615" type="line"/>
      <point x="699" y="610"/>
      <point x="653" y="611"/>
      <point x="637" y="611" type="curve" smooth="yes"/>
      <point x="493" y="611"/>
      <point x="419" y="662"/>
      <point x="419" y="787" type="curve" smooth="yes"/>
      <point x="419" y="986"/>
      <point x="505" y="1036"/>
      <point x="659" y="1036" type="curve" smooth="yes"/>
      <point x="713" y="1036"/>
      <point x="749" y="1033"/>
      <point x="764" y="1030" type="curve"/>
    </contour>
  </outline>
</glyph>
<glyph name="afii10146" format="1">
  <advance width="1467"/>
  <unicode hex="0462"/>
  <outline>
    <contour>
      <point x="804" y="1700" type="move" name="top"/>
    </contour>
    <contour>
      <point x="731" y="1154" type="line"/>
      <point x="1088" y="1136" type="line"/>
      <point x="1076" y="984" type="line"/>
      <point x="1251" y="984" type="line"/>
      <point x="1325" y="1285" type="line"/>
      <point x="3" y="1285" type="line"/>
      <point x="-56" y="984" type="line"/>
      <point x="118" y="984" type="line"/>
      <point x="182" y="1136" type="line"/>
      <point x="407" y="1154" type="line"/>
    </contour>
    <contour>
      <point x="253" y="67" type="line"/>
      <point x="341" y="151" type="line"/>
      <point x="112" y="106" type="line"/>
      <point x="99" y="0" type="line"/>
      <point x="501" y="0" type="line"/>
      <point x="604" y="59" type="line"/>
      <point x="787" y="1453" type="line"/>
      <point x="763" y="1383" type="line"/>
      <point x="952" y="1421" type="line"/>
      <point x="963" y="1522" type="line"/>
      <point x="292" y="1522" type="line"/>
      <point x="280" y="1412" type="line"/>
      <point x="468" y="1379" type="line"/>
      <point x="435" y="1445" type="line"/>
    </contour>
    <contour>
      <point x="378" y="0" type="line"/>
      <point x="460" y="0"/>
      <point x="671" y="-18"/>
      <point x="718" y="-18" type="curve" smooth="yes"/>
      <point x="1130" y="-18"/>
      <point x="1400" y="149"/>
      <point x="1400" y="485" type="curve" smooth="yes"/>
      <point x="1400" y="732"/>
      <point x="1215" y="861"/>
      <point x="901" y="861" type="curve" smooth="yes"/>
      <point x="811" y="861"/>
      <point x="700" y="840"/>
      <point x="652" y="827" type="curve"/>
      <point x="591" y="713" type="line"/>
      <point x="697" y="702" type="line"/>
      <point x="723" y="711"/>
      <point x="777" y="715"/>
      <point x="816" y="715" type="curve" smooth="yes"/>
      <point x="977" y="715"/>
      <point x="1034" y="605"/>
      <point x="1034" y="456" type="curve" smooth="yes"/>
      <point x="1034" y="253"/>
      <point x="923" y="106"/>
      <point x="718" y="106" type="curve" smooth="yes"/>
      <point x="601" y="106"/>
      <point x="566" y="115"/>
      <point x="524" y="126" type="curve"/>
    </contour>
  </outline>
</glyph>
<glyph name="afii10194" format="1">
  <advance width="1755"/>
  <unicode hex="0463"/>
  <outline>
    <contour>
      <point x="802" y="-170" type="move" name="btm"/>
    </contour>
    <contour>
      <point x="802" y="1700" type="move" name="top"/>
    </contour>
    <contour>
      <point x="731" y="1700" type="move" name="top"/>
    </contour>
    <contour>
      <point x="76" y="0" type="line"/>
      <point x="400" y="0" type="line"/>
      <point x="525" y="912" type="line"/>
      <point x="542" y="1139" type="line"/>
      <point x="490" y="1163" type="line"/>
      <point x="116" y="1111" type="line"/>
      <point x="100" y="1022" type="line"/>
      <point x="215" y="958" type="line"/>
      <point x="210" y="985" type="line"/>
    </contour>
    <contour>
      <point x="777" y="487" type="curve" smooth="yes"/>
      <point x="709" y="122"/>
      <point x="912" y="-23"/>
      <point x="1163" y="-23" type="curve" smooth="yes"/>
      <point x="1478" y="-23"/>
      <point x="1717" y="182"/>
      <point x="1717" y="467" type="curve" smooth="yes"/>
      <point x="1717" y="740"/>
      <point x="1570" y="808"/>
      <point x="1416" y="808" type="curve" smooth="yes"/>
      <point x="1205" y="808"/>
      <point x="1064" y="630"/>
      <point x="1043" y="587" type="curve"/>
      <point x="901" y="484" type="line"/>
      <point x="972" y="427" type="line"/>
      <point x="1023" y="565"/>
      <point x="1177" y="620"/>
      <point x="1237" y="620" type="curve" smooth="yes"/>
      <point x="1349" y="620"/>
      <point x="1390" y="530"/>
      <point x="1390" y="435" type="curve" smooth="yes"/>
      <point x="1390" y="285"/>
      <point x="1353" y="106"/>
      <point x="1187" y="106" type="curve" smooth="yes"/>
      <point x="1120" y="106"/>
      <point x="1048" y="159"/>
      <point x="1088" y="384" type="curve" smooth="yes"/>
      <point x="1108" y="496"/>
      <point x="1166" y="801"/>
      <point x="1166" y="861" type="curve" smooth="yes"/>
      <point x="1166" y="1085"/>
      <point x="1055" y="1163"/>
      <point x="901" y="1163" type="curve" smooth="yes"/>
      <point x="705" y="1163"/>
      <point x="553" y="1018"/>
      <point x="469" y="819" type="curve" smooth="yes"/>
      <point x="468" y="818" type="line"/>
      <point x="456" y="689" type="line"/>
      <point x="484" y="688" type="line"/>
      <point x="544" y="834"/>
      <point x="656" y="965"/>
      <point x="741" y="965" type="curve" smooth="yes"/>
      <point x="794" y="965"/>
      <point x="818" y="935"/>
      <point x="820" y="825" type="curve" smooth="yes"/>
      <point x="822" y="709"/>
      <point x="797" y="594"/>
    </contour>
  </outline>
</glyph>
<glyph name="afii10195" format="1">
  <advance width="1197"/>
  <unicode hex="0473"/>
  <outline>
    <contour>
      <point x="682" y="392" type="curve" smooth="yes"/>
      <point x="752" y="392"/>
      <point x="828" y="483"/>
      <point x="851" y="567" type="curve"/>
      <point x="792" y="695" type="line"/>
      <point x="767" y="648"/>
      <point x="740" y="598"/>
      <point x="690" y="598" type="curve" smooth="yes"/>
      <point x="623" y="598"/>
      <point x="606" y="743"/>
      <point x="502" y="743" type="curve" smooth="yes"/>
      <point x="435" y="743"/>
      <point x="357" y="660"/>
      <point x="329" y="579" type="curve"/>
      <point x="381" y="459" type="line"/>
      <point x="406" y="498"/>
      <point x="438" y="538"/>
      <point x="480" y="537" type="curve" smooth="yes"/>
      <point x="561" y="535"/>
      <point x="563" y="392"/>
    </contour>
    <component base="o"/>
  </outline>
</glyph>
<glyph name="uni048C" format="1">
  <advance width="1347"/>
  <unicode hex="048C"/>
  <outline>
    <contour>
      <point x="749" y="1700" type="move" name="top"/>
    </contour>
    <contour>
      <point x="75" y="1081" type="line"/>
      <point x="900" y="1081" type="line"/>
      <point x="913" y="1189" type="line"/>
      <point x="88" y="1189" type="line"/>
    </contour>
    <component base="afii10046"/>
  </outline>
</glyph>
<glyph name="uni048F" format="1">
  <advance width="1222"/>
  <unicode hex="048F"/>
  <outline>
    <contour>
      <point x="1012" y="-53" type="line"/>
      <point x="582" y="447" type="line"/>
      <point x="501" y="377" type="line"/>
      <point x="930" y="-124" type="line"/>
    </contour>
    <component base="p"/>
  </outline>
</glyph>
<glyph name="uni0492" format="1">
  <advance width="1116"/>
  <unicode hex="0492"/>
  <outline>
    <contour>
      <point x="22" y="704" type="line"/>
      <point x="855" y="704" type="line"/>
      <point x="871" y="844" type="line"/>
      <point x="43" y="844" type="line"/>
    </contour>
    <component base="afii10020"/>
  </outline>
</glyph>
<glyph name="uni0493" format="1">
  <advance width="929"/>
  <unicode hex="0493"/>
  <outline>
    <contour>
      <point x="388" y="-170" type="move" name="btm"/>
    </contour>
    <contour>
      <point x="545" y="1700" type="move" name="top"/>
    </contour>
    <contour>
      <point x="530" y="1700" type="move" name="top"/>
    </contour>
    <contour>
      <point x="6" y="536" type="line"/>
      <point x="746" y="536" type="line"/>
      <point x="734" y="428" type="line"/>
      <point x="-6" y="428" type="line"/>
    </contour>
    <contour>
      <point x="109" y="1155" type="line"/>
      <point x="1009" y="1155" type="line"/>
      <point x="916" y="738" type="line"/>
      <point x="749" y="738" type="line"/>
      <point x="769" y="988" type="line"/>
      <point x="547" y="1020" type="line"/>
      <point x="407" y="0" type="line"/>
      <point x="83" y="0" type="line"/>
      <point x="227" y="1066" type="line"/>
      <point x="255" y="947" type="line"/>
      <point x="84" y="1017" type="line"/>
    </contour>
  </outline>
</glyph>
<glyph name="uni0494" format="1">
  <advance width="1288"/>
  <unicode hex="0494"/>
  <outline>
    <contour>
      <point x="1257" y="468" type="curve" smooth="yes"/>
      <point x="1257" y="715"/>
      <point x="1154" y="871"/>
      <point x="840" y="871" type="curve" smooth="yes"/>
      <point x="712" y="871"/>
      <point x="598" y="803"/>
      <point x="522" y="721" type="curve"/>
      <point x="463" y="664" type="line"/>
      <point x="509" y="616" type="line"/>
      <point x="594" y="690"/>
      <point x="671" y="740"/>
      <point x="777" y="740" type="curve" smooth="yes"/>
      <point x="899" y="740"/>
      <point x="942" y="627"/>
      <point x="942" y="437" type="curve" smooth="yes"/>
      <point x="942" y="54"/>
      <point x="793" y="-211"/>
      <point x="599" y="-211" type="curve" smooth="yes"/>
      <point x="569" y="-211"/>
      <point x="538" y="-211"/>
      <point x="521" y="-209" type="curve"/>
      <point x="507" y="-326" type="line"/>
      <point x="526" y="-335"/>
      <point x="581" y="-341"/>
      <point x="609" y="-341" type="curve" smooth="yes"/>
      <point x="994" y="-341"/>
      <point x="1257" y="63"/>
    </contour>
    <contour>
      <point x="-8" y="0" type="line"/>
      <point x="667" y="0" type="line"/>
      <point x="677" y="106" type="line"/>
      <point x="457" y="140" type="line"/>
      <point x="485" y="67" type="line"/>
      <point x="664" y="1402" type="line"/>
      <point x="902" y="1376" type="line"/>
      <point x="933" y="1017" type="line"/>
      <point x="1114" y="1017" type="line"/>
      <point x="1192" y="1522" type="line"/>
      <point x="176" y="1522" type="line"/>
      <point x="162" y="1412" type="line"/>
      <point x="350" y="1379" type="line"/>
      <point x="316" y="1453" type="line"/>
      <point x="132" y="70" type="line"/>
      <point x="198" y="148" type="line"/>
      <point x="3" y="106" type="line"/>
    </contour>
  </outline>
</glyph>
<glyph name="uni0497" format="1">
  <advance width="2037"/>
  <unicode hex="0497"/>
  <outline>
    <contour>
      <point x="1452" y="-545" type="line"/>
      <point x="1570" y="-516"/>
      <point x="1734" y="-383"/>
      <point x="1734" y="-277" type="curve" smooth="yes"/>
      <point x="1734" y="-190"/>
      <point x="1690" y="-147"/>
      <point x="1690" y="-99" type="curve" smooth="yes"/>
      <point x="1690" y="-45"/>
      <point x="1753" y="-8"/>
      <point x="1794" y="12" type="curve"/>
      <point x="1699" y="12" type="line"/>
      <point x="1641" y="6"/>
      <point x="1461" y="-41"/>
      <point x="1461" y="-166" type="curve" smooth="yes"/>
      <point x="1461" y="-241"/>
      <point x="1486" y="-261"/>
      <point x="1486" y="-314" type="curve" smooth="yes"/>
      <point x="1486" y="-375"/>
      <point x="1429" y="-443"/>
      <point x="1379" y="-463" type="curve"/>
    </contour>
    <component base="afii10072"/>
  </outline>
</glyph>
<glyph name="uni049A" format="1">
  <advance width="1451"/>
  <unicode hex="049A"/>
  <outline>
    <contour>
      <point x="1094" y="-380" type="curve"/>
      <point x="1268" y="-380" type="line"/>
      <point x="1300" y="-275"/>
      <point x="1368" y="-106"/>
      <point x="1406" y="136" type="curve"/>
      <point x="1154" y="136" type="line"/>
      <point x="1106" y="12" type="line"/>
      <point x="1117" y="-71"/>
      <point x="1101" y="-286"/>
    </contour>
    <component base="afii10028"/>
  </outline>
</glyph>
<glyph name="uni049D" format="1">
  <advance width="1341"/>
  <unicode hex="049D"/>
  <outline>
    <contour>
      <point x="810" y="-170" type="move" name="btm"/>
    </contour>
    <contour>
      <point x="621" y="1700" type="move" name="top"/>
    </contour>
    <contour>
      <point x="665" y="1700" type="move" name="top"/>
    </contour>
    <contour>
      <point x="671" y="217" type="line"/>
      <point x="770" y="925" type="line"/>
      <point x="637" y="925" type="line"/>
      <point x="538" y="217" type="line"/>
    </contour>
    <contour>
      <point x="878" y="599" type="line"/>
      <point x="1010" y="657"/>
      <point x="1281" y="788"/>
      <point x="1281" y="996" type="curve" smooth="yes"/>
      <point x="1281" y="1087"/>
      <point x="1209" y="1154"/>
      <point x="1123" y="1154" type="curve" smooth="yes"/>
      <point x="1015" y="1154"/>
      <point x="921" y="1100"/>
      <point x="921" y="993" type="curve" smooth="yes"/>
      <point x="921" y="918"/>
      <point x="961" y="908"/>
      <point x="959" y="859" type="curve" smooth="yes"/>
      <point x="958" y="823"/>
      <point x="935" y="778"/>
      <point x="892" y="724" type="curve" smooth="yes"/>
      <point x="857" y="680"/>
      <point x="812" y="644"/>
      <point x="741" y="599" type="curve"/>
    </contour>
    <contour>
      <point x="83" y="0" type="line"/>
      <point x="407" y="0" type="line"/>
      <point x="562" y="1133" type="line"/>
      <point x="497" y="1163" type="line"/>
      <point x="123" y="1111" type="line"/>
      <point x="107" y="1022" type="line"/>
      <point x="222" y="958" type="line"/>
      <point x="217" y="985" type="line"/>
    </contour>
    <contour>
      <point x="1324" y="0" type="line"/>
      <point x="1336" y="92" type="line"/>
      <point x="1262" y="128" type="line"/>
      <point x="1165" y="154"/>
      <point x="1042" y="639"/>
      <point x="917" y="639" type="curve" smooth="yes"/>
      <point x="447" y="639" type="line"/>
      <point x="415" y="587" type="line"/>
      <point x="435" y="539" type="line"/>
      <point x="687" y="539" type="line" smooth="yes"/>
      <point x="806" y="539"/>
      <point x="832" y="0"/>
      <point x="997" y="0" type="curve" smooth="yes"/>
    </contour>
  </outline>
</glyph>
<glyph name="uni04A1" format="1">
  <advance width="1414"/>
  <unicode hex="04A1"/>
  <outline>
    <contour>
      <point x="966" y="-170" type="move" name="btm"/>
    </contour>
    <contour>
      <point x="777" y="1700" type="move" name="top"/>
    </contour>
    <contour>
      <point x="821" y="1700" type="move" name="top"/>
    </contour>
    <contour>
      <point x="532" y="1005" type="line"/>
      <point x="819" y="1138" type="line"/>
      <point x="81" y="1138" type="line"/>
      <point x="22" y="729" type="line"/>
      <point x="196" y="729" type="line"/>
      <point x="286" y="983" type="line"/>
    </contour>
    <contour>
      <point x="1410" y="0" type="line"/>
      <point x="1422" y="92" type="line"/>
      <point x="1348" y="128" type="line"/>
      <point x="1251" y="154"/>
      <point x="1078" y="639"/>
      <point x="1003" y="639" type="curve" smooth="yes"/>
      <point x="693" y="639" type="line"/>
      <point x="661" y="587" type="line"/>
      <point x="681" y="539" type="line"/>
      <point x="743" y="539" type="line" smooth="yes"/>
      <point x="882" y="539"/>
      <point x="918" y="0"/>
      <point x="1083" y="0" type="curve" smooth="yes"/>
    </contour>
    <contour>
      <point x="1239" y="1154" type="curve" smooth="yes"/>
      <point x="1131" y="1154"/>
      <point x="1037" y="1100"/>
      <point x="1037" y="993" type="curve" smooth="yes"/>
      <point x="1037" y="918"/>
      <point x="1077" y="908"/>
      <point x="1075" y="859" type="curve" smooth="yes"/>
      <point x="1074" y="823"/>
      <point x="1051" y="778"/>
      <point x="1008" y="724" type="curve" smooth="yes"/>
      <point x="973" y="680"/>
      <point x="918" y="624"/>
      <point x="847" y="579" type="curve"/>
      <point x="984" y="579" type="line"/>
      <point x="1116" y="637"/>
      <point x="1397" y="798"/>
      <point x="1397" y="1006" type="curve" smooth="yes"/>
      <point x="1397" y="1097"/>
      <point x="1325" y="1154"/>
    </contour>
    <contour>
      <point x="339" y="0" type="line"/>
      <point x="663" y="0" type="line"/>
      <point x="819" y="1138" type="line"/>
      <point x="492" y="1111" type="line"/>
    </contour>
  </outline>
</glyph>
<glyph name="uni04A2" format="1">
  <advance width="1656"/>
  <unicode hex="04A2"/>
  <outline>
    <contour>
      <point x="850" y="-168" type="move" name="btm"/>
    </contour>
    <contour>
      <point x="909" y="1700" type="move" name="top"/>
    </contour>
    <contour>
      <point x="1311" y="-380" type="curve"/>
      <point x="1485" y="-380" type="line"/>
      <point x="1517" y="-275"/>
      <point x="1585" y="-106"/>
      <point x="1623" y="136" type="curve"/>
      <point x="1371" y="136" type="line"/>
      <point x="1323" y="12" type="line"/>
      <point x="1334" y="-71"/>
      <point x="1318" y="-286"/>
    </contour>
    <component base="H"/>
  </outline>
</glyph>
<glyph name="uni04A5" format="1">
  <advance width="1613"/>
  <unicode hex="04A5"/>
  <outline>
    <contour>
      <point x="790" y="-170" type="move" name="btm"/>
    </contour>
    <contour>
      <point x="790" y="1700" type="move" name="top"/>
    </contour>
    <contour>
      <point x="705" y="1700" type="move" name="top"/>
    </contour>
    <contour>
      <point x="1404" y="981" type="line"/>
      <point x="1401" y="749" type="line"/>
      <point x="1565" y="749" type="line"/>
      <point x="1635" y="1155" type="line"/>
      <point x="1225" y="1155" type="line"/>
      <point x="1136" y="1035" type="line"/>
    </contour>
    <component base="afii10079"/>
  </outline>
</glyph>
<glyph name="uni04B0" format="1">
  <advance width="1281"/>
  <unicode hex="04B0"/>
  <outline>
    <contour>
      <point x="110" y="513" type="line"/>
      <point x="1156" y="513" type="line"/>
      <point x="1173" y="621" type="line"/>
      <point x="127" y="621" type="line"/>
    </contour>
    <component base="Y" xOffset="-10"/>
  </outline>
</glyph>
<glyph name="uni04B1" format="1">
  <advance width="1084"/>
  <unicode hex="04B1"/>
  <outline>
    <contour>
      <point x="22" y="0" type="line"/>
      <point x="888" y="0" type="line"/>
      <point x="901" y="108" type="line"/>
      <point x="35" y="108" type="line"/>
    </contour>
    <component base="uni04AF"/>
  </outline>
</glyph>
<glyph name="uni04B2" format="1">
  <advance width="1380"/>
  <unicode hex="04B2"/>
  <outline>
    <contour>
      <point x="552" y="-170" type="move" name="btm"/>
    </contour>
    <contour>
      <point x="811" y="1700" type="move" name="top"/>
    </contour>
    <contour>
      <point x="1075" y="-380" type="curve"/>
      <point x="1249" y="-380" type="line"/>
      <point x="1281" y="-275"/>
      <point x="1349" y="-106"/>
      <point x="1387" y="136" type="curve"/>
      <point x="1135" y="136" type="line"/>
      <point x="1087" y="12" type="line"/>
      <point x="1098" y="-71"/>
      <point x="1082" y="-286"/>
    </contour>
    <component base="X"/>
  </outline>
</glyph>
<glyph name="uni04B3" format="1">
  <advance width="1030"/>
  <unicode hex="04B3"/>
  <outline>
    <contour>
      <point x="632" y="-170" type="move" name="btm"/>
    </contour>
    <contour>
      <point x="632" y="1700" type="move" name="top"/>
    </contour>
    <contour>
      <point x="802" y="12" type="line"/>
      <point x="744" y="6"/>
      <point x="564" y="-41"/>
      <point x="564" y="-166" type="curve" smooth="yes"/>
      <point x="564" y="-241"/>
      <point x="589" y="-261"/>
      <point x="589" y="-314" type="curve" smooth="yes"/>
      <point x="589" y="-375"/>
      <point x="532" y="-443"/>
      <point x="482" y="-463" type="curve"/>
      <point x="555" y="-545" type="line"/>
      <point x="673" y="-516"/>
      <point x="837" y="-383"/>
      <point x="837" y="-277" type="curve" smooth="yes"/>
      <point x="837" y="-190"/>
      <point x="793" y="-147"/>
      <point x="793" y="-99" type="curve" smooth="yes"/>
      <point x="793" y="-45"/>
      <point x="856" y="-8"/>
      <point x="897" y="12" type="curve"/>
    </contour>
    <component base="x"/>
  </outline>
</glyph>
<glyph name="uni04B4" format="1">
  <advance width="2197"/>
  <unicode hex="04B4"/>
  <outline>
    <contour>
      <point x="810" y="-170" type="move" name="btm"/>
    </contour>
    <contour>
      <point x="810" y="1700" type="move" name="top"/>
    </contour>
    <contour>
      <point x="818" y="1700" type="move" name="top"/>
    </contour>
    <contour>
      <point x="244" y="0" type="line"/>
      <point x="2106" y="0" type="line"/>
      <point x="1986" y="116" type="line"/>
      <point x="1618" y="136" type="line"/>
      <point x="1797" y="78" type="line"/>
      <point x="1975" y="1432" type="line"/>
      <point x="1921" y="1378" type="line"/>
      <point x="2123" y="1412" type="line"/>
      <point x="2134" y="1522" type="line"/>
      <point x="1452" y="1522" type="line"/>
      <point x="1440" y="1412" type="line"/>
      <point x="1635" y="1383" type="line"/>
      <point x="1625" y="1447" type="line"/>
      <point x="1443" y="78" type="line"/>
      <point x="1505" y="119" type="line"/>
      <point x="514" y="119" type="line"/>
      <point x="739" y="91" type="line"/>
      <point x="920" y="1448" type="line"/>
      <point x="724" y="1396" type="line"/>
      <point x="1109" y="1396" type="line"/>
      <point x="1132" y="1056" type="line"/>
      <point x="1325" y="1056" type="line"/>
      <point x="1357" y="1522" type="line"/>
      <point x="142" y="1522" type="line"/>
      <point x="56" y="1056" type="line"/>
      <point x="236" y="1056" type="line"/>
      <point x="342" y="1396" type="line"/>
      <point x="586" y="1396" type="line"/>
      <point x="569" y="1445" type="line"/>
      <point x="387" y="97" type="line"/>
      <point x="417" y="141" type="line"/>
      <point x="255" y="106" type="line"/>
    </contour>
    <contour>
      <point x="1836" y="-380" type="curve"/>
      <point x="2010" y="-380" type="line"/>
      <point x="2042" y="-275"/>
      <point x="2110" y="-106"/>
      <point x="2148" y="136" type="curve"/>
      <point x="1749" y="136" type="line"/>
      <point x="1848" y="12" type="line"/>
      <point x="1859" y="-71"/>
      <point x="1843" y="-286"/>
    </contour>
  </outline>
</glyph>
<glyph name="uni04B5" format="1">
  <advance width="1281"/>
  <unicode hex="04B5"/>
  <outline>
    <contour>
      <point x="731" y="-545" type="line"/>
      <point x="849" y="-516"/>
      <point x="1013" y="-383"/>
      <point x="1013" y="-277" type="curve" smooth="yes"/>
      <point x="1013" y="-190"/>
      <point x="969" y="-147"/>
      <point x="969" y="-99" type="curve" smooth="yes"/>
      <point x="969" y="-45"/>
      <point x="1029" y="-15"/>
      <point x="1070" y="5" type="curve"/>
      <point x="1049" y="51" type="line"/>
      <point x="991" y="45"/>
      <point x="740" y="-41"/>
      <point x="740" y="-166" type="curve" smooth="yes"/>
      <point x="740" y="-241"/>
      <point x="765" y="-261"/>
      <point x="765" y="-314" type="curve" smooth="yes"/>
      <point x="765" y="-375"/>
      <point x="708" y="-443"/>
      <point x="658" y="-463" type="curve"/>
    </contour>
    <component base="u"/>
    <component base="macron" xOffset="416"/>
  </outline>
</glyph>
<glyph name="uni04B8" format="1">
  <advance width="1457"/>
  <unicode hex="04B8"/>
  <outline>
    <contour>
      <point x="712" y="-170" type="move" name="btm"/>
    </contour>
    <contour>
      <point x="712" y="1700" type="move" name="top"/>
    </contour>
    <contour>
      <point x="719" y="371" type="line"/>
      <point x="811" y="1031" type="line"/>
      <point x="667" y="1031" type="line"/>
      <point x="575" y="371" type="line"/>
    </contour>
    <component base="afii10041"/>
  </outline>
</glyph>
<glyph name="uni04B9" format="1">
  <advance width="1317"/>
  <unicode hex="04B9"/>
  <outline>
    <contour>
      <point x="588" y="-170" type="move" name="btm"/>
    </contour>
    <contour>
      <point x="588" y="1700" type="move" name="top"/>
    </contour>
    <contour>
      <point x="546" y="1700" type="move" name="top"/>
    </contour>
    <contour>
      <point x="494" y="1139" type="line"/>
      <point x="442" y="1163" type="line"/>
      <point x="39" y="1131" type="line"/>
      <point x="23" y="1042" type="line"/>
      <point x="149" y="961" type="line"/>
      <point x="124" y="796" type="line" smooth="yes"/>
      <point x="63" y="470"/>
      <point x="139" y="340"/>
      <point x="446" y="340" type="curve" smooth="yes"/>
      <point x="625" y="340"/>
      <point x="719" y="382"/>
      <point x="803" y="428" type="curve"/>
      <point x="913" y="532" type="line"/>
      <point x="817" y="565" type="line"/>
      <point x="782" y="540"/>
      <point x="657" y="524"/>
      <point x="588" y="524" type="curve" smooth="yes"/>
      <point x="442" y="524"/>
      <point x="420" y="599"/>
      <point x="434" y="660" type="curve" smooth="yes"/>
    </contour>
    <contour>
      <point x="979" y="-20" type="curve" smooth="yes"/>
      <point x="1111" y="-20"/>
      <point x="1222" y="64"/>
      <point x="1259" y="124" type="curve"/>
      <point x="1231" y="197" type="line"/>
      <point x="1185" y="160"/>
      <point x="1156" y="151"/>
      <point x="1139" y="151" type="curve" smooth="yes"/>
      <point x="1108" y="151"/>
      <point x="1092" y="179"/>
      <point x="1099" y="227" type="curve" smooth="yes"/>
      <point x="1227" y="1155" type="line"/>
      <point x="895" y="1155" type="line"/>
      <point x="767" y="174" type="line" smooth="yes"/>
      <point x="754" y="78"/>
      <point x="821" y="-20"/>
    </contour>
    <contour>
      <point x="641" y="151" type="line"/>
      <point x="730" y="811" type="line"/>
      <point x="596" y="811" type="line"/>
      <point x="507" y="151" type="line"/>
    </contour>
  </outline>
</glyph>
<glyph name="uni04BC" format="1">
  <advance width="1576"/>
  <unicode hex="04BC"/>
  <outline>
    <contour>
      <point x="352" y="875" type="line"/>
      <point x="209" y="875"/>
      <point x="207" y="916"/>
      <point x="207" y="961" type="curve" smooth="yes"/>
      <point x="207" y="987"/>
      <point x="241" y="1095"/>
      <point x="261" y="1118" type="curve"/>
      <point x="82" y="1148" type="line"/>
      <point x="50" y="1129"/>
      <point x="0" y="987"/>
      <point x="0" y="936" type="curve" smooth="yes"/>
      <point x="0" y="799"/>
      <point x="98" y="736"/>
      <point x="328" y="736" type="curve"/>
    </contour>
    <contour>
      <point x="835" y="-23" type="curve" smooth="yes"/>
      <point x="1210" y="-23"/>
      <point x="1283" y="68"/>
      <point x="1390" y="68" type="curve"/>
      <point x="1434" y="400" type="line"/>
      <point x="1257" y="400" type="line"/>
      <point x="1162" y="195" type="line"/>
      <point x="1135" y="136"/>
      <point x="1055" y="91"/>
      <point x="945" y="91" type="curve" smooth="yes"/>
      <point x="739" y="91"/>
      <point x="656" y="349"/>
      <point x="670" y="708" type="curve" smooth="yes"/>
      <point x="694" y="1240"/>
      <point x="849" y="1404"/>
      <point x="1000" y="1404" type="curve" smooth="yes"/>
      <point x="1182" y="1404"/>
      <point x="1227" y="1217"/>
      <point x="1227" y="1070" type="curve" smooth="yes"/>
      <point x="1227" y="1001"/>
      <point x="1216" y="948"/>
      <point x="1199" y="875" type="curve"/>
      <point x="469" y="875" type="line"/>
      <point x="436" y="736" type="line"/>
      <point x="1501" y="736" type="line"/>
      <point x="1523" y="793"/>
      <point x="1549" y="919"/>
      <point x="1549" y="1036" type="curve" smooth="yes"/>
      <point x="1549" y="1355"/>
      <point x="1359" y="1538"/>
      <point x="1046" y="1538" type="curve" smooth="yes"/>
      <point x="650" y="1538"/>
      <point x="313" y="1139"/>
      <point x="313" y="589" type="curve" smooth="yes"/>
      <point x="313" y="221"/>
      <point x="522" y="-23"/>
    </contour>
  </outline>
</glyph>
<glyph name="uni04C6" format="1">
  <advance width="1196"/>
  <unicode hex="04C6"/>
  <outline>
    <contour>
      <point x="370" y="-170" type="move" name="btm"/>
    </contour>
    <contour>
      <point x="370" y="1700" type="move" name="top"/>
    </contour>
    <contour>
      <point x="365" y="1700" type="move" name="top"/>
    </contour>
    <contour>
      <point x="937" y="59" type="line"/>
      <point x="883" y="0" type="line"/>
      <point x="883" y="-127"/>
      <point x="731" y="-308"/>
      <point x="639" y="-364" type="curve"/>
      <point x="711" y="-445" type="line"/>
      <point x="920" y="-382"/>
      <point x="1138" y="-76"/>
      <point x="1138" y="124" type="curve"/>
    </contour>
    <component base="afii10077"/>
  </outline>
</glyph>
<glyph name="uni04C7" format="1">
  <advance width="1659"/>
  <unicode hex="04C7"/>
  <outline>
    <contour>
      <point x="733" y="-170" type="move" name="btm"/>
    </contour>
    <contour>
      <point x="733" y="1700" type="move" name="top"/>
    </contour>
    <contour>
      <point x="379" y="704" type="line"/>
      <point x="1317" y="704" type="line"/>
      <point x="1331" y="844" type="line"/>
      <point x="393" y="844" type="line"/>
    </contour>
    <component base="I" xOffset="-4"/>
    <component base="J" xOffset="900"/>
  </outline>
</glyph>
<glyph name="uni04CA" format="1">
  <advance width="1315"/>
  <unicode hex="04CA"/>
  <outline>
    <contour>
      <point x="823" y="-170" type="move" name="btm"/>
    </contour>
    <contour>
      <point x="823" y="1700" type="move" name="top"/>
    </contour>
    <contour>
      <point x="734" y="1700" type="move" name="top"/>
    </contour>
    <contour>
      <point x="1056" y="59" type="line"/>
      <point x="1002" y="0" type="line"/>
      <point x="1002" y="-127"/>
      <point x="850" y="-308"/>
      <point x="758" y="-364" type="curve"/>
      <point x="830" y="-445" type="line"/>
      <point x="1039" y="-382"/>
      <point x="1257" y="-76"/>
      <point x="1257" y="124" type="curve"/>
    </contour>
    <component base="afii10079"/>
  </outline>
</glyph>
<glyph name="uni04CD" format="1">
  <advance width="2017"/>
  <unicode hex="04CD"/>
  <outline>
    <contour>
      <point x="1634" y="-380" type="line"/>
      <point x="1728" y="-364"/>
      <point x="1933" y="-150"/>
      <point x="1987" y="0" type="curve"/>
      <point x="1995" y="106" type="line"/>
      <point x="1686" y="0" type="line"/>
      <point x="1674" y="-67"/>
      <point x="1589" y="-212"/>
      <point x="1501" y="-295" type="curve"/>
    </contour>
    <component base="M"/>
  </outline>
</glyph>
<glyph name="uni04D8" format="1">
  <advance width="1347"/>
  <unicode hex="04D8"/>
  <outline>
    <contour>
      <point x="798" y="1538" type="curve"/>
      <point x="423" y="1538"/>
      <point x="350" y="1447"/>
      <point x="243" y="1447" type="curve"/>
      <point x="199" y="1115" type="line"/>
      <point x="386" y="1115" type="line"/>
      <point x="481" y="1320" type="line" smooth="yes"/>
      <point x="514" y="1391"/>
      <point x="578" y="1424"/>
      <point x="688" y="1424" type="curve" smooth="yes"/>
      <point x="908" y="1424"/>
      <point x="989" y="1166"/>
      <point x="973" y="807" type="curve"/>
      <point x="947" y="275"/>
      <point x="794" y="111"/>
      <point x="633" y="111" type="curve" smooth="yes"/>
      <point x="475" y="111"/>
      <point x="406" y="239"/>
      <point x="406" y="445" type="curve" smooth="yes"/>
      <point x="406" y="514"/>
      <point x="417" y="567"/>
      <point x="434" y="640" type="curve"/>
      <point x="1164" y="640" type="line"/>
      <point x="1197" y="779" type="line"/>
      <point x="132" y="779" type="line"/>
      <point x="110" y="722"/>
      <point x="84" y="596"/>
      <point x="84" y="479" type="curve" smooth="yes"/>
      <point x="84" y="160"/>
      <point x="274" y="-23"/>
      <point x="587" y="-23" type="curve" smooth="yes"/>
      <point x="983" y="-23"/>
      <point x="1320" y="376"/>
      <point x="1320" y="926" type="curve" smooth="yes"/>
      <point x="1320" y="1294"/>
      <point x="1111" y="1538"/>
    </contour>
  </outline>
</glyph>
<glyph name="uni04DC" format="1">
  <advance width="2139"/>
  <unicode hex="04DC"/>
  <outline>
    <contour>
      <point x="1007" y="1700" type="move" name="top"/>
    </contour>
    <component base="dieresis.cap" xOffset="821"/>
    <component base="afii10024"/>
  </outline>
</glyph>
<glyph name="uni04ED" format="1">
  <advance width="1058"/>
  <unicode hex="04ED"/>
  <outline>
    <contour>
      <point x="572" y="-170" type="move" name="btm"/>
    </contour>
    <contour>
      <point x="582" y="1700" type="move" name="top"/>
    </contour>
    <contour>
      <point x="526" y="1700" type="move" name="top"/>
    </contour>
    <component base="dieresis" xOffset="227"/>
    <component base="afii10095"/>
  </outline>
</glyph>
<glyph name="uni04F6" format="1">
  <advance width="1114"/>
  <unicode hex="04F6"/>
  <outline>
    <contour>
      <point x="630" y="-170" type="move" name="btm"/>
    </contour>
    <contour>
      <point x="423" y="1700" type="move" name="top"/>
    </contour>
    <contour>
      <point x="581" y="1700" type="move" name="top"/>
    </contour>
    <contour>
      <point x="-51" y="0" type="line"/>
      <point x="805" y="0" type="line"/>
      <point x="815" y="126" type="line"/>
      <point x="610" y="116" type="line"/>
      <point x="490" y="116" type="line"/>
      <point x="662" y="1402" type="line"/>
      <point x="900" y="1376" type="line"/>
      <point x="934" y="938" type="line"/>
      <point x="1115" y="938" type="line"/>
      <point x="1190" y="1522" type="line"/>
      <point x="118" y="1522" type="line"/>
      <point x="106" y="1424" type="line"/>
      <point x="358" y="1391" type="line"/>
      <point x="317" y="1453" type="line"/>
      <point x="130" y="70" type="line"/>
      <point x="196" y="143" type="line"/>
      <point x="-38" y="115" type="line"/>
    </contour>
    <contour>
      <point x="536" y="-380" type="curve"/>
      <point x="710" y="-380" type="line"/>
      <point x="742" y="-275"/>
      <point x="810" y="-106"/>
      <point x="848" y="136" type="curve"/>
      <point x="439" y="136" type="line"/>
      <point x="548" y="12" type="line"/>
      <point x="559" y="-71"/>
      <point x="543" y="-286"/>
    </contour>
  </outline>
</glyph>
<glyph name="uni04F7" format="1">
  <advance width="910"/>
  <unicode hex="04F7"/>
  <outline>
    <contour>
      <point x="369" y="-170" type="move" name="btm"/>
    </contour>
    <contour>
      <point x="526" y="1700" type="move" name="top"/>
    </contour>
    <contour>
      <point x="511" y="1700" type="move" name="top"/>
    </contour>
    <contour>
      <point x="433" y="12" type="line"/>
      <point x="375" y="6"/>
      <point x="195" y="-41"/>
      <point x="195" y="-166" type="curve" smooth="yes"/>
      <point x="195" y="-241"/>
      <point x="220" y="-261"/>
      <point x="220" y="-314" type="curve" smooth="yes"/>
      <point x="220" y="-375"/>
      <point x="163" y="-443"/>
      <point x="113" y="-463" type="curve"/>
      <point x="186" y="-545" type="line"/>
      <point x="304" y="-516"/>
      <point x="468" y="-383"/>
      <point x="468" y="-277" type="curve" smooth="yes"/>
      <point x="468" y="-190"/>
      <point x="424" y="-147"/>
      <point x="424" y="-99" type="curve" smooth="yes"/>
      <point x="424" y="-45"/>
      <point x="487" y="-8"/>
      <point x="528" y="12" type="curve"/>
    </contour>
    <component base="afii10068"/>
  </outline>
</glyph>
<glyph name="uni0500" format="1">
  <advance width="1347"/>
  <unicode hex="0500"/>
  <outline>
    <contour>
      <point x="343" y="1700" type="move" name="top"/>
    </contour>
    <contour>
      <point x="1055" y="913" type="line"/>
      <point x="973" y="913"/>
      <point x="762" y="931"/>
      <point x="715" y="931" type="curve" smooth="yes"/>
      <point x="303" y="931"/>
      <point x="33" y="743"/>
      <point x="33" y="358" type="curve" smooth="yes"/>
      <point x="33" y="111"/>
      <point x="238" y="-18"/>
      <point x="552" y="-18" type="curve" smooth="yes"/>
      <point x="691" y="-18"/>
      <point x="761" y="0"/>
      <point x="898" y="0" type="curve"/>
      <point x="736" y="141" type="line"/>
      <point x="710" y="132"/>
      <point x="656" y="128"/>
      <point x="617" y="128" type="curve" smooth="yes"/>
      <point x="486" y="128"/>
      <point x="399" y="238"/>
      <point x="399" y="387" type="curve" smooth="yes"/>
      <point x="399" y="632"/>
      <point x="510" y="807"/>
      <point x="715" y="807" type="curve" smooth="yes"/>
      <point x="832" y="807"/>
      <point x="867" y="798"/>
      <point x="909" y="787" type="curve"/>
    </contour>
    <contour>
      <point x="747" y="0" type="line"/>
      <point x="1234" y="0" type="line"/>
      <point x="1246" y="106" type="line"/>
      <point x="1089" y="136" type="line"/>
      <point x="1254" y="1386" type="line"/>
      <point x="1408" y="1412" type="line"/>
      <point x="1420" y="1522" type="line"/>
      <point x="737" y="1522" type="line"/>
      <point x="725" y="1412" type="line"/>
      <point x="902" y="1386" type="line"/>
      <point x="736" y="141" type="line"/>
    </contour>
  </outline>
</glyph>
<glyph name="uni0507" format="1">
  <advance width="949"/>
  <unicode hex="0507"/>
  <outline>
    <contour>
      <point x="458" y="-170" type="move" name="btm"/>
    </contour>
    <contour>
      <point x="458" y="1700" type="move" name="top"/>
    </contour>
    <contour>
      <point x="464" y="1700" type="move" name="top"/>
    </contour>
    <contour>
      <point x="25" y="466" type="line"/>
      <point x="67" y="464"/>
      <point x="277" y="457"/>
      <point x="308" y="457" type="curve" smooth="yes"/>
      <point x="627" y="457"/>
      <point x="867" y="575"/>
      <point x="867" y="865" type="curve" smooth="yes"/>
      <point x="867" y="1076"/>
      <point x="723" y="1168"/>
      <point x="395" y="1168" type="curve" smooth="yes"/>
      <point x="329" y="1168"/>
      <point x="143" y="1149"/>
      <point x="104" y="1145" type="curve"/>
      <point x="85" y="999" type="line"/>
      <point x="126" y="1006"/>
      <point x="249" y="1017"/>
      <point x="321" y="1017" type="curve" smooth="yes"/>
      <point x="487" y="1017"/>
      <point x="538" y="955"/>
      <point x="538" y="865" type="curve" smooth="yes"/>
      <point x="538" y="666"/>
      <point x="411" y="608"/>
      <point x="253" y="608" type="curve" smooth="yes"/>
      <point x="211" y="608"/>
      <point x="92" y="608"/>
      <point x="45" y="611" type="curve"/>
    </contour>
    <contour>
      <point x="860" y="104" type="line"/>
      <point x="808" y="124" type="line"/>
      <point x="653" y="165"/>
      <point x="645" y="538"/>
      <point x="512" y="560" type="curve"/>
      <point x="315" y="560" type="line"/>
      <point x="264" y="520" type="line"/>
      <point x="408" y="473"/>
      <point x="406" y="0"/>
      <point x="523" y="0" type="curve"/>
      <point x="769" y="0" type="line"/>
    </contour>
    <contour>
      <point x="585" y="-380" type="curve"/>
      <point x="759" y="-380" type="line"/>
      <point x="791" y="-275"/>
      <point x="859" y="-106"/>
      <point x="897" y="136" type="curve"/>
      <point x="645" y="136" type="line"/>
      <point x="597" y="12" type="line"/>
      <point x="608" y="-71"/>
      <point x="592" y="-286"/>
    </contour>
  </outline>
</glyph>
<glyph name="uni050F" format="1">
  <advance width="2411"/>
  <unicode hex="050F"/>
  <outline>
    <contour>
      <point x="82" y="0" type="line"/>
      <point x="405" y="0" type="line"/>
      <point x="531" y="912" type="line"/>
      <point x="548" y="1139" type="line"/>
      <point x="495" y="1163" type="line"/>
      <point x="123" y="1111" type="line"/>
      <point x="106" y="1022" type="line"/>
      <point x="222" y="958" type="line"/>
      <point x="218" y="991" type="line"/>
    </contour>
    <contour>
      <point x="748" y="0" type="line"/>
      <point x="1083" y="0" type="line"/>
      <point x="1142" y="505" type="line"/>
      <point x="1158" y="617"/>
      <point x="1170" y="761"/>
      <point x="1169" y="861" type="curve" smooth="yes"/>
      <point x="1166" y="1087"/>
      <point x="1054" y="1163"/>
      <point x="894" y="1163" type="curve" smooth="yes"/>
      <point x="702" y="1163"/>
      <point x="550" y="1000"/>
      <point x="477" y="818" type="curve"/>
      <point x="487" y="698" type="line"/>
      <point x="545" y="839"/>
      <point x="664" y="965"/>
      <point x="742" y="965" type="curve" smooth="yes"/>
      <point x="805" y="965"/>
      <point x="832" y="945"/>
      <point x="835" y="820" type="curve" smooth="yes"/>
      <point x="838" y="704"/>
      <point x="819" y="552"/>
      <point x="805" y="443" type="curve" smooth="yes"/>
    </contour>
    <contour>
      <point x="1778" y="406" type="curve" smooth="yes"/>
      <point x="1795" y="518"/>
      <point x="1828" y="801"/>
      <point x="1828" y="861" type="curve" smooth="yes"/>
      <point x="1828" y="1085"/>
      <point x="1717" y="1163"/>
      <point x="1563" y="1163" type="curve" smooth="yes"/>
      <point x="1367" y="1163"/>
      <point x="1217" y="1048"/>
      <point x="1133" y="849" type="curve"/>
      <point x="1148" y="718" type="line"/>
      <point x="1208" y="864"/>
      <point x="1318" y="965"/>
      <point x="1403" y="965" type="curve" smooth="yes"/>
      <point x="1456" y="965"/>
      <point x="1480" y="935"/>
      <point x="1482" y="825" type="curve" smooth="yes"/>
      <point x="1484" y="709"/>
      <point x="1452" y="495"/>
      <point x="1433" y="388" type="curve" smooth="yes"/>
      <point x="1398" y="126"/>
      <point x="1546" y="-23"/>
      <point x="1839" y="-23" type="curve" smooth="yes"/>
      <point x="2152" y="-23"/>
      <point x="2328" y="110"/>
      <point x="2359" y="400" type="curve" smooth="yes"/>
      <point x="2385" y="643" type="line"/>
      <point x="2100" y="643" type="line"/>
      <point x="2073" y="392" type="line" smooth="yes"/>
      <point x="2054" y="215"/>
      <point x="2007" y="89"/>
      <point x="1868" y="89" type="curve" smooth="yes"/>
      <point x="1753" y="89"/>
      <point x="1755" y="253"/>
    </contour>
  </outline>
</glyph>
<glyph name="uni1E9E" format="1">
  <advance width="1462"/>
  <unicode hex="1E9E"/>
  <outline>
    <contour>
      <point x="1067" y="921" type="line"/>
      <point x="1258" y="870"/>
      <point x="1445" y="746"/>
      <point x="1445" y="480" type="curve" smooth="yes"/>
      <point x="1445" y="166"/>
      <point x="1198" y="-7"/>
      <point x="918" y="-7" type="curve" smooth="yes"/>
      <point x="768" y="-7"/>
      <point x="647" y="49"/>
      <point x="573" y="55" type="curve"/>
      <point x="624" y="391" type="line"/>
      <point x="786" y="391" type="line"/>
      <point x="803" y="184" type="line"/>
      <point x="822" y="132"/>
      <point x="868" y="107"/>
      <point x="933" y="107" type="curve" smooth="yes"/>
      <point x="1024" y="107"/>
      <point x="1092" y="200"/>
      <point x="1092" y="417" type="curve" smooth="yes"/>
      <point x="1092" y="606"/>
      <point x="908" y="733"/>
      <point x="799" y="798" type="curve"/>
      <point x="810" y="870" type="line"/>
      <point x="1114" y="1270" type="line"/>
      <point x="1114" y="1354"/>
      <point x="1025" y="1423"/>
      <point x="900" y="1423" type="curve" smooth="yes"/>
      <point x="674" y="1423"/>
      <point x="574" y="1255"/>
      <point x="535" y="968" type="curve" smooth="yes"/>
      <point x="402" y="0" type="line"/>
      <point x="-70" y="0" type="line"/>
      <point x="-59" y="106" type="line"/>
      <point x="85" y="140" type="line"/>
      <point x="59" y="70" type="line"/>
      <point x="176" y="928" type="line" smooth="yes"/>
      <point x="217" y="1270"/>
      <point x="515" y="1546"/>
      <point x="934" y="1546" type="curve" smooth="yes"/>
      <point x="1219" y="1546"/>
      <point x="1346" y="1460"/>
      <point x="1390" y="1398" type="curve"/>
      <point x="1380" y="1319" type="line"/>
    </contour>
  </outline>
</glyph>
<glyph name="perthousand" format="1">
  <advance width="2718"/>
  <unicode hex="2030"/>
  <outline>
    <contour>
      <point x="1814" y="377" type="curve" smooth="yes"/>
      <point x="1814" y="201"/>
      <point x="1925" y="57"/>
      <point x="2122" y="57" type="curve" smooth="yes"/>
      <point x="2386" y="57"/>
      <point x="2564" y="288"/>
      <point x="2564" y="507" type="curve" smooth="yes"/>
      <point x="2564" y="679"/>
      <point x="2459" y="812"/>
      <point x="2247" y="812" type="curve" smooth="yes"/>
      <point x="1996" y="812"/>
      <point x="1814" y="589"/>
    </contour>
    <contour>
      <point x="2045" y="379" type="curve" smooth="yes"/>
      <point x="2045" y="505"/>
      <point x="2102" y="700"/>
      <point x="2219" y="700" type="curve" smooth="yes"/>
      <point x="2293" y="700"/>
      <point x="2324" y="622"/>
      <point x="2324" y="499" type="curve" smooth="yes"/>
      <point x="2324" y="377"/>
      <point x="2266" y="170"/>
      <point x="2151" y="170" type="curve" smooth="yes"/>
      <point x="2072" y="170"/>
      <point x="2045" y="255"/>
    </contour>
    <component base="percent"/>
  </outline>
</glyph>
<glyph name="guilsinglleft" format="1">
  <advance width="1190"/>
  <unicode hex="2039"/>
  <outline>
    <contour>
      <point x="212" y="530" type="line"/>
      <point x="838" y="142" type="line"/>
      <point x="938" y="294" type="line"/>
      <point x="564" y="605" type="line"/>
      <point x="1024" y="921" type="line"/>
      <point x="966" y="1096" type="line"/>
      <point x="234" y="690" type="line"/>
    </contour>
  </outline>
</glyph>
<glyph name="colonmonetary" format="1">
  <advance width="1653"/>
  <unicode hex="20A1"/>
  <outline>
    <contour>
      <point x="804" y="-16" type="curve" smooth="yes"/>
      <point x="943" y="-16"/>
      <point x="1074" y="19"/>
      <point x="1152" y="44" type="curve"/>
      <point x="1201" y="57"/>
      <point x="1271" y="67"/>
      <point x="1310" y="70" type="curve"/>
      <point x="1390" y="412" type="line"/>
      <point x="1250" y="413" type="line"/>
      <point x="1148" y="225" type="line"/>
      <point x="1108" y="181"/>
      <point x="950" y="147"/>
      <point x="823" y="147" type="curve" smooth="yes"/>
      <point x="673" y="147"/>
      <point x="530" y="315"/>
      <point x="536" y="643" type="curve" smooth="yes"/>
      <point x="544" y="1098"/>
      <point x="751" y="1406"/>
      <point x="977" y="1406" type="curve" smooth="yes"/>
      <point x="1107" y="1406"/>
      <point x="1223" y="1372"/>
      <point x="1298" y="1318" type="curve"/>
      <point x="1317" y="1120" type="line"/>
      <point x="1451" y="1120" type="line"/>
      <point x="1517" y="1472" type="line"/>
      <point x="1500" y="1476"/>
      <point x="1439" y="1485"/>
      <point x="1415" y="1492" type="curve" smooth="yes"/>
      <point x="1343" y="1515"/>
      <point x="1177" y="1546"/>
      <point x="1021" y="1546" type="curve" smooth="yes"/>
      <point x="626" y="1546"/>
      <point x="225" y="1235"/>
      <point x="225" y="610" type="curve" smooth="yes"/>
      <point x="225" y="225"/>
      <point x="435" y="-16"/>
    </contour>
    <contour>
      <point x="634" y="-325" type="line"/>
      <point x="1044" y="1813" type="line"/>
      <point x="937" y="1813" type="line"/>
      <point x="527" y="-325" type="line"/>
    </contour>
    <contour>
      <point x="898" y="-325" type="line"/>
      <point x="1308" y="1813" type="line"/>
      <point x="1201" y="1813" type="line"/>
      <point x="791" y="-325" type="line"/>
    </contour>
  </outline>
</glyph>
<glyph name="dong" format="1">
  <advance width="1329"/>
  <unicode hex="20AB"/>
  <outline>
    <contour>
      <point x="874" y="1530" type="line"/>
      <point x="732" y="452" type="line"/>
      <point x="739" y="452" type="line"/>
      <point x="726" y="345" type="line" smooth="yes"/>
      <point x="725" y="334"/>
      <point x="724" y="324"/>
      <point x="724" y="315" type="curve" smooth="yes"/>
      <point x="724" y="253"/>
      <point x="785" y="247"/>
      <point x="855" y="247" type="curve" smooth="yes"/>
      <point x="938" y="247"/>
      <point x="1066" y="270"/>
      <point x="1123" y="285" type="curve"/>
      <point x="1135" y="382" type="line"/>
      <point x="1013" y="382" type="line"/>
      <point x="1179" y="1649" type="line"/>
      <point x="1138" y="1680" type="line"/>
      <point x="1137" y="1680" type="line"/>
      <point x="744" y="1637" type="line"/>
      <point x="733" y="1545" type="line"/>
    </contour>
    <contour>
      <point x="902" y="1117" type="line"/>
      <point x="831" y="1138"/>
      <point x="806" y="1168"/>
      <point x="697" y="1168" type="curve" smooth="yes"/>
      <point x="314" y="1168"/>
      <point x="130" y="915"/>
      <point x="130" y="611" type="curve" smooth="yes"/>
      <point x="130" y="376"/>
      <point x="269" y="257"/>
      <point x="480" y="257" type="curve" smooth="yes"/>
      <point x="670" y="257"/>
      <point x="715" y="356"/>
      <point x="792" y="450" type="curve"/>
      <point x="740" y="502" type="line"/>
      <point x="720" y="474"/>
      <point x="662" y="389"/>
      <point x="556" y="389" type="curve" smooth="yes"/>
      <point x="473" y="389"/>
      <point x="426" y="477"/>
      <point x="426" y="645" type="curve" smooth="yes"/>
      <point x="426" y="843"/>
      <point x="493" y="1066"/>
      <point x="671" y="1066" type="curve" smooth="yes"/>
      <point x="776" y="1066"/>
      <point x="814" y="1023"/>
      <point x="828" y="997" type="curve"/>
    </contour>
    <contour>
      <point x="102" y="0" type="line"/>
      <point x="1047" y="0" type="line"/>
      <point x="1062" y="145" type="line"/>
      <point x="117" y="145" type="line"/>
    </contour>
    <contour>
      <point x="575" y="1299" type="line"/>
      <point x="1276" y="1299" type="line"/>
      <point x="1289" y="1407" type="line"/>
      <point x="588" y="1407" type="line"/>
    </contour>
  </outline>
</glyph>
<glyph name="uni20B9" format="1">
  <advance width="1483"/>
  <unicode hex="20B9"/>
  <outline>
    <contour>
      <point x="210" y="631" type="line"/>
      <point x="250" y="626"/>
      <point x="412" y="623"/>
      <point x="473" y="623" type="curve" smooth="yes"/>
      <point x="487" y="623"/>
      <point x="528" y="624"/>
      <point x="539" y="624" type="curve"/>
      <point x="670" y="633" type="line"/>
      <point x="993" y="680"/>
      <point x="1142" y="887"/>
      <point x="1142" y="1170" type="curve" smooth="yes"/>
      <point x="1142" y="1327"/>
      <point x="1070" y="1401"/>
      <point x="1000" y="1428" type="curve"/>
      <point x="534" y="1522" type="line"/>
      <point x="329" y="1522" type="line"/>
      <point x="313" y="1385" type="line"/>
      <point x="479" y="1385" type="line" smooth="yes"/>
      <point x="727" y="1385"/>
      <point x="814" y="1327"/>
      <point x="814" y="1155" type="curve" smooth="yes"/>
      <point x="814" y="860"/>
      <point x="660" y="759"/>
      <point x="432" y="759" type="curve" smooth="yes"/>
      <point x="318" y="759"/>
      <point x="267" y="763"/>
      <point x="224" y="768" type="curve"/>
    </contour>
    <contour>
      <point x="257" y="1008" type="line"/>
      <point x="1386" y="1008" type="line"/>
      <point x="1401" y="1155" type="line"/>
      <point x="272" y="1155" type="line"/>
    </contour>
    <contour>
      <point x="313" y="1385" type="line"/>
      <point x="1449" y="1385" type="line"/>
      <point x="1465" y="1522" type="line"/>
      <point x="534" y="1522" type="line"/>
    </contour>
    <contour>
      <point x="1132" y="0" type="line"/>
      <point x="1144" y="100" type="line"/>
      <point x="1068" y="127" type="line"/>
      <point x="960" y="153"/>
      <point x="907" y="590"/>
      <point x="765" y="662" type="curve"/>
      <point x="529" y="685" type="line"/>
      <point x="408" y="643" type="line"/>
      <point x="563" y="599"/>
      <point x="622" y="0"/>
      <point x="736" y="0" type="curve" smooth="yes"/>
    </contour>
  </outline>
</glyph>
<glyph name="uni20BA" format="1">
  <advance width="1443"/>
  <unicode hex="20BA"/>
  <outline>
    <contour>
      <point x="226" y="0" type="line"/>
      <point x="539" y="0" type="line"/>
      <point x="619" y="47" type="line"/>
      <point x="555" y="156" type="line"/>
      <point x="746" y="1522" type="line"/>
      <point x="433" y="1522" type="line"/>
    </contour>
    <contour>
      <point x="1045" y="719" type="line"/>
      <point x="1016" y="471"/>
      <point x="914" y="156"/>
      <point x="555" y="156" type="curve"/>
      <point x="539" y="0" type="line"/>
      <point x="963" y="0"/>
      <point x="1289" y="256"/>
      <point x="1341" y="664" type="curve" smooth="yes"/>
      <point x="1348" y="719" type="line"/>
    </contour>
    <contour>
      <point x="32" y="455" type="line"/>
      <point x="1013" y="878" type="line"/>
      <point x="1028" y="1065" type="line"/>
      <point x="47" y="642" type="line"/>
    </contour>
    <contour>
      <point x="65" y="804" type="line"/>
      <point x="1080" y="1245" type="line"/>
      <point x="1095" y="1432" type="line"/>
      <point x="80" y="991" type="line"/>
    </contour>
  </outline>
</glyph>
<glyph name="uni2113" format="1">
  <advance width="1214"/>
  <unicode hex="2113"/>
  <outline>
    <contour>
      <point x="433" y="-170" type="move" name="btm"/>
    </contour>
    <contour>
      <point x="436" y="1700" type="move" name="top"/>
    </contour>
    <contour>
      <point x="162" y="0" type="line"/>
      <point x="244" y="42"/>
      <point x="334" y="81"/>
      <point x="399" y="119" type="curve"/>
      <point x="449" y="150"/>
      <point x="496" y="183"/>
      <point x="544" y="216" type="curve"/>
      <point x="894" y="516"/>
      <point x="1166" y="950"/>
      <point x="1166" y="1375" type="curve" smooth="yes"/>
      <point x="1166" y="1610"/>
      <point x="989" y="1683"/>
      <point x="855" y="1683" type="curve" smooth="yes"/>
      <point x="485" y="1683"/>
      <point x="197" y="1202"/>
      <point x="197" y="641" type="curve" smooth="yes"/>
      <point x="197" y="265"/>
      <point x="409" y="-23"/>
      <point x="658" y="-23" type="curve" smooth="yes"/>
      <point x="949" y="-23"/>
      <point x="1083" y="173"/>
      <point x="1151" y="424" type="curve"/>
      <point x="995" y="484" type="line"/>
      <point x="927" y="295"/>
      <point x="832" y="246"/>
      <point x="717" y="246" type="curve" smooth="yes"/>
      <point x="663" y="246"/>
      <point x="458" y="273"/>
      <point x="458" y="688" type="curve" smooth="yes"/>
      <point x="458" y="1092"/>
      <point x="610" y="1506"/>
      <point x="786" y="1506" type="curve" smooth="yes"/>
      <point x="819" y="1506"/>
      <point x="841" y="1455"/>
      <point x="841" y="1383" type="curve" smooth="yes"/>
      <point x="841" y="1111"/>
      <point x="638" y="742"/>
      <point x="408" y="519" type="curve"/>
      <point x="347" y="470"/>
      <point x="321" y="451"/>
      <point x="248" y="405" type="curve"/>
      <point x="169" y="351"/>
      <point x="43" y="285"/>
      <point x="-96" y="225" type="curve"/>
    </contour>
  </outline>
</glyph>
<glyph name="Omega" format="1">
  <advance width="1684"/>
  <unicode hex="2126"/>
  <outline>
    <contour>
      <point x="526" y="98" type="curve"/>
      <point x="633" y="0" type="line"/>
      <point x="683" y="149" type="line"/>
      <point x="593" y="244"/>
      <point x="490" y="528"/>
      <point x="490" y="781" type="curve" smooth="yes"/>
      <point x="490" y="1104"/>
      <point x="596" y="1405"/>
      <point x="879" y="1405" type="curve" smooth="yes"/>
      <point x="1119" y="1405"/>
      <point x="1184" y="1121"/>
      <point x="1184" y="926" type="curve" smooth="yes"/>
      <point x="1184" y="580"/>
      <point x="1074" y="279"/>
      <point x="867" y="149" type="curve"/>
      <point x="907" y="0" type="line"/>
      <point x="941" y="19"/>
      <point x="974" y="81"/>
      <point x="1014" y="100" type="curve" smooth="yes"/>
      <point x="1340" y="259"/>
      <point x="1535" y="665"/>
      <point x="1535" y="975" type="curve" smooth="yes"/>
      <point x="1535" y="1336"/>
      <point x="1300" y="1537"/>
      <point x="925" y="1537" type="curve" smooth="yes"/>
      <point x="360" y="1537"/>
      <point x="156" y="1193"/>
      <point x="156" y="786" type="curve" smooth="yes"/>
      <point x="156" y="484"/>
      <point x="375" y="173"/>
    </contour>
    <contour>
      <point x="-76" y="0" type="line"/>
      <point x="633" y="0" type="line"/>
      <point x="507" y="181" type="line"/>
      <point x="103" y="181" type="line"/>
    </contour>
    <contour>
      <point x="907" y="0" type="line"/>
      <point x="1620" y="0" type="line"/>
      <point x="1423" y="191" type="line"/>
      <point x="1023" y="191" type="line"/>
    </contour>
    <contour>
      <point x="1388" y="39" type="line"/>
      <point x="1620" y="0" type="line"/>
      <point x="1689" y="440" type="line"/>
      <point x="1501" y="440" type="line"/>
    </contour>
    <contour>
      <point x="-76" y="0" type="line"/>
      <point x="144" y="42" type="line"/>
      <point x="104" y="416" type="line"/>
      <point x="-76" y="440" type="line"/>
    </contour>
  </outline>
</glyph>
<glyph name="estimated" format="1">
  <advance width="1442"/>
  <unicode hex="212E"/>
  <outline>
    <contour>
      <point x="247" y="612" type="line"/>
      <point x="1306" y="612" type="line"/>
      <point x="1316" y="663"/>
      <point x="1316" y="746"/>
      <point x="1316" y="832" type="curve"/>
      <point x="1306" y="1161"/>
      <point x="1067" y="1361"/>
      <point x="765" y="1356" type="curve" smooth="yes"/>
      <point x="330" y="1349"/>
      <point x="125" y="1063"/>
      <point x="125" y="671" type="curve" smooth="yes"/>
      <point x="125" y="241"/>
      <point x="364" y="-16"/>
      <point x="771" y="-16" type="curve" smooth="yes"/>
      <point x="970" y="-16"/>
      <point x="1151" y="54"/>
      <point x="1239" y="115" type="curve"/>
      <point x="1166" y="266" type="line"/>
      <point x="1094" y="211"/>
      <point x="949" y="147"/>
      <point x="780" y="147" type="curve" smooth="yes"/>
      <point x="542" y="147"/>
      <point x="355" y="249"/>
      <point x="341" y="585" type="curve"/>
      <point x="335" y="681"/>
      <point x="340" y="800"/>
      <point x="355" y="868" type="curve" smooth="yes"/>
      <point x="409" y="1104"/>
      <point x="547" y="1193"/>
      <point x="751" y="1193" type="curve" smooth="yes"/>
      <point x="1019" y="1193"/>
      <point x="1088" y="1054"/>
      <point x="1105" y="899" type="curve" smooth="yes"/>
      <point x="1109" y="860"/>
      <point x="1109" y="808"/>
      <point x="1108" y="768" type="curve"/>
      <point x="267" y="768" type="line"/>
    </contour>
    <contour>
      <point x="319" y="237" type="line"/>
      <point x="500" y="175" type="line"/>
      <point x="500" y="1171" type="line"/>
      <point x="319" y="1078" type="line"/>
    </contour>
    <contour>
      <point x="954" y="736" type="line"/>
      <point x="1131" y="736" type="line"/>
      <point x="1131" y="1158" type="line"/>
      <point x="954" y="1198" type="line"/>
    </contour>
  </outline>
</glyph>
<glyph name="arrowleft" format="1">
  <advance width="1530"/>
  <unicode hex="2190"/>
  <outline>
    <contour>
      <point x="1417" y="895" type="line"/>
      <point x="760" y="895" type="line"/>
      <point x="387" y="811" type="line"/>
      <point x="387" y="722" type="line"/>
      <point x="760" y="638" type="line"/>
      <point x="1417" y="638" type="line"/>
    </contour>
    <contour>
      <point x="703" y="1356" type="line"/>
      <point x="113" y="766" type="line"/>
      <point x="317" y="652" type="line"/>
      <point x="861" y="1195" type="line"/>
    </contour>
    <contour>
      <point x="861" y="338" type="line"/>
      <point x="317" y="881" type="line"/>
      <point x="113" y="766" type="line"/>
      <point x="703" y="177" type="line"/>
    </contour>
  </outline>
</glyph>
<glyph name="partialdiff" format="1">
  <advance width="1364"/>
  <unicode hex="2202"/>
  <outline>
    <contour>
      <point x="133" y="449" type="curve" smooth="yes"/>
      <point x="124" y="232"/>
      <point x="261" y="-24"/>
      <point x="597" y="-24" type="curve" smooth="yes"/>
      <point x="1133" y="-24"/>
      <point x="1255" y="528"/>
      <point x="1255" y="951" type="curve" smooth="yes"/>
      <point x="1255" y="1235"/>
      <point x="1118" y="1682"/>
      <point x="645" y="1682" type="curve" smooth="yes"/>
      <point x="520" y="1682"/>
      <point x="365" y="1642"/>
      <point x="254" y="1551" type="curve"/>
      <point x="365" y="1446" type="line"/>
      <point x="460" y="1507"/>
      <point x="515" y="1520"/>
      <point x="580" y="1520" type="curve" smooth="yes"/>
      <point x="952" y="1520"/>
      <point x="993" y="1022"/>
      <point x="944" y="644" type="curve" smooth="yes"/>
      <point x="912" y="398"/>
      <point x="813" y="122"/>
      <point x="626" y="122" type="curve" smooth="yes"/>
      <point x="474" y="122"/>
      <point x="423" y="343"/>
      <point x="430" y="496" type="curve" smooth="yes"/>
      <point x="442" y="766"/>
      <point x="586" y="863"/>
      <point x="679" y="863" type="curve" smooth="yes"/>
      <point x="858" y="863"/>
      <point x="963" y="813"/>
      <point x="1022" y="717" type="curve"/>
      <point x="1082" y="866" type="line"/>
      <point x="1039" y="930"/>
      <point x="917" y="1022"/>
      <point x="727" y="1022" type="curve" smooth="yes"/>
      <point x="350" y="1022"/>
      <point x="148" y="811"/>
    </contour>
  </outline>
</glyph>
<glyph name="summation" format="1">
  <advance width="1583"/>
  <unicode hex="2211"/>
  <outline>
    <contour>
      <point x="207" y="-15" type="line"/>
      <point x="215" y="-179" type="line"/>
      <point x="1329" y="-180" type="line"/>
      <point x="1403" y="225" type="line"/>
      <point x="1220" y="262" type="line"/>
      <point x="1085" y="24" type="line"/>
      <point x="388" y="-20" type="line"/>
      <point x="481" y="-92" type="line"/>
      <point x="1037" y="713" type="line"/>
      <point x="539" y="1428" type="line"/>
      <point x="412" y="1391" type="line"/>
      <point x="1074" y="1350" type="line"/>
      <point x="1163" y="1142" type="line"/>
      <point x="1342" y="1142" type="line"/>
      <point x="1309" y="1532" type="line"/>
      <point x="235" y="1532" type="line"/>
      <point x="227" y="1335" type="line"/>
      <point x="678" y="670" type="line"/>
    </contour>
  </outline>
</glyph>
<glyph name="infinity" format="1">
  <advance width="2418"/>
  <unicode hex="221E"/>
  <outline>
    <contour>
      <point x="195" y="591" type="curve" smooth="yes"/>
      <point x="196" y="333"/>
      <point x="419" y="127"/>
      <point x="682" y="127" type="curve" smooth="yes"/>
      <point x="1009" y="127"/>
      <point x="1158" y="351"/>
      <point x="1283" y="518" type="curve"/>
      <point x="1143" y="656" type="line"/>
      <point x="1036" y="478"/>
      <point x="915" y="356"/>
      <point x="762" y="356" type="curve" smooth="yes"/>
      <point x="580" y="356"/>
      <point x="485" y="485"/>
      <point x="476" y="629" type="curve" smooth="yes"/>
      <point x="468" y="757"/>
      <point x="562" y="905"/>
      <point x="673" y="905" type="curve" smooth="yes"/>
      <point x="939" y="905"/>
      <point x="1032" y="595"/>
      <point x="1127" y="493" type="curve"/>
      <point x="1322" y="719" type="line"/>
      <point x="1179" y="879"/>
      <point x="1036" y="1119"/>
      <point x="716" y="1119" type="curve" smooth="yes"/>
      <point x="406" y="1119"/>
      <point x="194" y="894"/>
    </contour>
    <contour>
      <point x="1106" y="527" type="line"/>
      <point x="1249" y="367"/>
      <point x="1381" y="127"/>
      <point x="1702" y="127" type="curve" smooth="yes"/>
      <point x="2021" y="127"/>
      <point x="2230" y="352"/>
      <point x="2224" y="665" type="curve" smooth="yes"/>
      <point x="2219" y="923"/>
      <point x="1999" y="1119"/>
      <point x="1736" y="1119" type="curve" smooth="yes"/>
      <point x="1426" y="1119"/>
      <point x="1259" y="895"/>
      <point x="1134" y="728" type="curve"/>
      <point x="1275" y="590" type="line"/>
      <point x="1383" y="768"/>
      <point x="1513" y="900"/>
      <point x="1665" y="900" type="curve" smooth="yes"/>
      <point x="1867" y="900"/>
      <point x="1954" y="761"/>
      <point x="1961" y="617" type="curve" smooth="yes"/>
      <point x="1969" y="449"/>
      <point x="1895" y="331"/>
      <point x="1794" y="331" type="curve" smooth="yes"/>
      <point x="1530" y="331"/>
      <point x="1397" y="651"/>
      <point x="1302" y="753" type="curve"/>
    </contour>
  </outline>
</glyph>
<glyph name="greaterequal" format="1">
  <advance width="1364"/>
  <unicode hex="2265"/>
  <outline>
    <contour>
      <point x="140" y="0" type="line"/>
      <point x="161" y="170" type="line"/>
      <point x="1109" y="170" type="line"/>
      <point x="1088" y="0" type="line"/>
    </contour>
    <contour>
      <point x="197" y="246" type="line"/>
      <point x="230" y="484" type="line"/>
      <point x="853" y="730" type="line"/>
      <point x="286" y="977" type="line"/>
      <point x="313" y="1209" type="line"/>
      <point x="1208" y="767" type="line"/>
      <point x="1200" y="689" type="line"/>
    </contour>
  </outline>
</glyph>
<glyph name="lozenge" format="1">
  <advance width="1364"/>
  <unicode hex="25CA"/>
  <outline>
    <contour>
      <point x="588" y="-10" type="line"/>
      <point x="775" y="-10" type="line"/>
      <point x="1211" y="691" type="line"/>
      <point x="1211" y="745" type="line"/>
      <point x="775" y="1446" type="line"/>
      <point x="588" y="1446" type="line"/>
      <point x="152" y="745" type="line"/>
      <point x="152" y="691" type="line"/>
    </contour>
    <contour>
      <point x="681" y="252" type="line"/>
      <point x="409" y="718" type="line"/>
      <point x="681" y="1184" type="line"/>
      <point x="953" y="718" type="line"/>
    </contour>
  </outline>
</glyph>
<glyph name="f_i" format="1">
  <advance width="1378"/>
  <unicode hex="FB01"/>
  <outline>
    <contour>
      <point x="87" y="-162" type="line"/>
      <point x="69" y="-298"/>
      <point x="25" y="-354"/>
      <point x="-39" y="-354" type="curve" smooth="yes"/>
      <point x="-87" y="-355"/>
      <point x="-182" y="-311"/>
      <point x="-195" y="-305" type="curve"/>
      <point x="-253" y="-489" type="line"/>
      <point x="-220" y="-497"/>
      <point x="-136" y="-513"/>
      <point x="-63" y="-513" type="curve" smooth="yes"/>
      <point x="252" y="-513"/>
      <point x="402" y="-188"/>
      <point x="435" y="83" type="curve" smooth="yes"/>
      <point x="545" y="984" type="line"/>
      <point x="713" y="984" type="line"/>
      <point x="744" y="1155" type="line"/>
      <point x="569" y="1155" type="line"/>
      <point x="589" y="1305" type="line" smooth="yes"/>
      <point x="614" y="1462"/>
      <point x="618" y="1514"/>
      <point x="723" y="1514" type="curve" smooth="yes"/>
      <point x="791" y="1514"/>
      <point x="832" y="1484"/>
      <point x="857" y="1466" type="curve"/>
      <point x="919" y="1644" type="line"/>
      <point x="865" y="1666"/>
      <point x="797" y="1670"/>
      <point x="741" y="1670" type="curve" smooth="yes"/>
      <point x="474" y="1670"/>
      <point x="311" y="1477"/>
      <point x="270" y="1229" type="curve" smooth="yes"/>
      <point x="257" y="1150" type="line"/>
      <point x="121" y="1087" type="line"/>
      <point x="100" y="984" type="line"/>
      <point x="225" y="984" type="line"/>
    </contour>
    <component base="dotlessi" xOffset="707"/>
    <component base="dotaccent" xOffset="974"/>
  </outline>
</glyph>
<glyph name="acute.cap" format="1">
  <advance width="527"/>
  <outline>
    <contour>
      <point x="124" y="1700" type="move" name="_top"/>
    </contour>
    <contour>
      <point x="152" y="1570" type="line"/>
      <point x="248" y="1606"/>
      <point x="447" y="1728"/>
      <point x="499" y="1829" type="curve"/>
      <point x="312" y="2014" type="line"/>
      <point x="36" y="1672" type="line"/>
    </contour>
  </outline>
</glyph>
<glyph name="breve.r" format="1">
  <advance width="978"/>
  <outline>
    <contour>
      <point x="451" y="1246" type="curve" smooth="yes"/>
      <point x="742" y="1246"/>
      <point x="886" y="1348"/>
      <point x="924" y="1602" type="curve" smooth="yes"/>
      <point x="926" y="1613"/>
      <point x="926" y="1624"/>
      <point x="926" y="1635" type="curve"/>
      <point x="708" y="1635" type="line" smooth="yes"/>
      <point x="677" y="1635"/>
      <point x="668" y="1595"/>
      <point x="662" y="1556" type="curve" smooth="yes"/>
      <point x="648" y="1467"/>
      <point x="646" y="1355"/>
      <point x="482" y="1355" type="curve" smooth="yes"/>
      <point x="393" y="1355"/>
      <point x="360" y="1404"/>
      <point x="360" y="1483" type="curve" smooth="yes"/>
      <point x="360" y="1516"/>
      <point x="369" y="1555"/>
      <point x="369" y="1589" type="curve" smooth="yes"/>
      <point x="369" y="1615"/>
      <point x="362" y="1635"/>
      <point x="340" y="1635" type="curve" smooth="yes"/>
      <point x="86" y="1635" type="line"/>
      <point x="80" y="1605"/>
      <point x="77" y="1577"/>
      <point x="77" y="1550" type="curve" smooth="yes"/>
      <point x="77" y="1336"/>
      <point x="212" y="1246"/>
    </contour>
  </outline>
</glyph>
<glyph name="hungarumlaut.cap" format="1">
  <advance width="922"/>
  <outline>
    <contour>
      <point x="340" y="1700" type="move" name="_top"/>
    </contour>
    <contour>
      <point x="74" y="1570" type="line"/>
      <point x="188" y="1607"/>
      <point x="364" y="1766"/>
      <point x="415" y="1882" type="curve"/>
      <point x="252" y="2014" type="line"/>
      <point x="-30" y="1645" type="line"/>
    </contour>
    <contour>
      <point x="559" y="1570" type="line"/>
      <point x="682" y="1608"/>
      <point x="834" y="1765"/>
      <point x="902" y="1881" type="curve"/>
      <point x="742" y="2014" type="line"/>
      <point x="460" y="1645" type="line"/>
    </contour>
  </outline>
</glyph>
<glyph name="macron.cap" format="1">
  <advance width="614"/>
  <outline>
    <contour>
      <point x="311" y="1700" type="move" name="_top"/>
    </contour>
    <contour>
      <point x="41" y="1707" type="line"/>
      <point x="612" y="1707" type="line"/>
      <point x="632" y="1916" type="line"/>
      <point x="61" y="1916" type="line"/>
    </contour>
  </outline>
</glyph>
<glyph name="ring.cap" format="1">
  <advance width="722"/>
  <outline>
    <contour>
      <point x="353" y="1700" type="move" name="_top"/>
    </contour>
    <contour>
      <point x="388" y="1660" type="curve" smooth="yes"/>
      <point x="321" y="1660"/>
      <point x="241" y="1699"/>
      <point x="241" y="1764" type="curve" smooth="yes"/>
      <point x="241" y="1856"/>
      <point x="342" y="1878"/>
      <point x="418" y="1878" type="curve" smooth="yes"/>
      <point x="487" y="1878"/>
      <point x="563" y="1844"/>
      <point x="563" y="1783" type="curve" smooth="yes"/>
      <point x="563" y="1677"/>
      <point x="465" y="1660"/>
    </contour>
    <contour>
      <point x="376" y="1521" type="curve" smooth="yes"/>
      <point x="558" y="1521"/>
      <point x="756" y="1605"/>
      <point x="756" y="1811" type="curve" smooth="yes"/>
      <point x="756" y="1946"/>
      <point x="618" y="2014"/>
      <point x="443" y="2014" type="curve" smooth="yes"/>
      <point x="288" y="2014"/>
      <point x="47" y="1960"/>
      <point x="47" y="1741" type="curve" smooth="yes"/>
      <point x="47" y="1590"/>
      <point x="187" y="1521"/>
    </contour>
  </outline>
</glyph>
<glyph name="zero.slash" format="1">
  <advance width="1278"/>
  <outline>
    <contour>
      <point x="349" y="45" type="line"/>
      <point x="418" y="126" type="line"/>
      <point x="919" y="914" type="line"/>
      <point x="986" y="993" type="line"/>
      <point x="913" y="1066" type="line"/>
      <point x="846" y="987" type="line"/>
      <point x="343" y="196" type="line"/>
      <point x="277" y="120" type="line"/>
    </contour>
    <component base="zero"/>
  </outline>
</glyph>
